<svg width="331" height="331" viewBox="0 0 331 331" fill="none" xmlns="http://www.w3.org/2000/svg">
<circle cx="165.5" cy="165.5" r="165.5" fill="#E4E4E4"/>
<path d="M27 226.5H66C66 226.5 65.7634 229.681 66.5 231.5C67.0285 232.805 67.666 233.866 68.5 235C69.2406 236.007 69.5569 236.179 70.5 237C71.8174 238.147 72.8593 238.401 74.5 239C76.0126 239.552 76.9043 239.784 78.5 240C80.435 240.261 81.6057 240.474 83.5 240C85.1943 239.576 86.0876 239.527 87.5 238.5C87.5 238.5 89.9761 236.572 90.5 235C90.8705 233.889 91.5193 232.578 90.5 232C89.5852 231.482 87.5 232.5 87.5 232.5C87.5 232.5 86.0388 233.337 85 233.5C83.6359 233.714 82.8106 233.434 81.5 233C79.7514 232.421 78.7502 231.853 77.5 230.5C76.4316 229.344 75.5 227 75.5 227L94.5 228H106C106 228 111.624 228.979 115.5 228.5C118.275 228.157 120.092 227.92 122.5 226.5C123.341 226.004 125 225 125 225H129H133.5L134.5 228C134.5 228 135.632 230.484 136.5 232C137.549 233.833 138.041 234.973 139.5 236.5C141.147 238.223 141.807 239.567 144 240.5C145.308 241.056 146.106 241.22 147.5 241.5C150.946 242.193 153.758 242.357 157 241C159.307 240.034 160.827 238.859 162.5 237C164.203 235.108 164.605 233.883 165.5 231.5C166.2 229.636 166.25 228.475 166.5 226.5C166.942 223.013 167.088 220.965 166.5 217.5C166.23 215.913 166.114 214.989 165.5 213.5C164.798 211.797 164.143 210.945 163 209.5C161.801 207.984 161.149 207.008 159.5 206C157.919 205.034 157.323 204.331 155.5 204C153.195 203.581 151.24 203.311 149 204C147.748 204.385 146.562 204.243 145 206C143.438 207.757 146.062 204.743 144.5 206.5C142.938 208.257 139.5 215 139.5 215L138.5 217.5C138.5 217.5 137.833 215.371 138 214C138.18 212.524 139.5 210.5 139.5 210.5C139.5 210.5 141.349 207.219 143 205.5C144.542 203.895 145.534 203.044 147.5 202C148.974 201.218 149.875 200.879 151.5 200.5C154.352 199.835 156.195 199.658 159 200.5C160.673 201.002 161.575 201.491 163 202.5C164.577 203.617 166.5 206 166.5 206C167.672 208.148 168.328 209.352 169.5 211.5C170.672 213.648 170.213 214.836 170.5 217C170.86 219.717 171 224 171 224L227.5 223L228 226.5C228 226.5 228.467 228.386 229 229.5C229.842 231.262 232 233.5 232 233.5C232 233.5 234.767 236.167 237 237C240.11 238.16 242.382 238.14 245.5 237C247.994 236.088 249.266 235.012 251 233C252.597 231.147 254 227.5 254 227.5C254 227.5 254.808 224.482 255 222.5C255.302 219.384 254.5 214.5 254.5 214.5C254.5 214.5 254.245 211.639 253.5 210C252.805 208.471 252.188 207.688 251 206.5C249.812 205.312 247.5 204 247.5 204C247.5 204 246.9 203.674 246.5 203.5C243.457 202.174 238 203.5 238 203.5C238 203.5 236.059 203.865 235 204.5C233.456 205.426 232.993 206.498 232 208C231.037 209.457 230 212 230 212L228 219.82C228 219.82 228.341 213.105 229.5 209C230.121 206.801 230.205 205.383 231.5 203.5C232.439 202.135 233.18 201.501 234.5 200.5C235.754 199.549 236.536 199.08 238 198.5C238.574 198.273 238.904 198.162 239.5 198C242.516 197.181 244.541 197.194 247.5 198.2C248.955 198.695 250.177 199.218 251.5 200C252.712 200.717 252.971 201.039 254 202C254.914 202.853 256 204.5 256 204.5C256 204.5 257.42 207.167 258 209C258.659 211.081 259 214.5 259 214.5V220H283L284 209L284.745 204.5L285.5 199L286 195H169.5C169.5 195 167.726 194.377 167 193.5C166.213 192.548 166 190.5 166 190.5C166 190.5 166.048 187.384 165.5 185.5C165.207 184.49 164.5 183 164.5 183C164.5 183 163.769 181.808 163 181.5C162.275 181.21 161.765 181.344 161 181.5C158.696 181.969 156.5 186 156.5 186L148.5 195.5C148.5 195.5 143.838 201.041 140 203.5C137.794 204.913 136.369 205.381 134 206.5C130.917 207.957 129.344 209.332 126 210C122.936 210.612 118 210 118 210L119 206.5C119 206.5 119.747 204.399 120 203C120.451 200.502 120.93 198.862 120 196.5C119.583 195.441 118.5 194 118.5 194C118.5 194 116.582 191.859 115 191C111.397 189.043 104.5 191 104.5 191C104.5 191 102.926 191.502 102 192C100.172 192.984 98.9527 194.017 97.5 195.5C96.2401 196.786 95.493 197.498 94.5 199C93.5367 200.457 93.4595 201.315 93 203C92.3835 205.261 93 209 93 209H109C109 209 110.476 209.301 111 210C111.37 210.494 111.5 211.5 111.5 211.5C111.5 211.5 111.218 211.83 111 212L110 212.5H94H85.5H76H71.5L49 212V223L42 222.5L40 221.5C40 221.5 37.644 214.942 39.5 211.5C39.8342 210.88 40.5 210 40.5 210L41.5 209C41.5 209 41.6102 207.47 41.5 206.5C41.3395 205.088 40.8244 204.384 40.5 203C39.7372 199.746 39.5 194.5 39.5 194.5C39.5 194.5 39.7702 194.153 40 194C40.6499 193.567 42 194 42 194C42 194 43.9783 195.368 45 196.5C45.6541 197.225 46.0682 197.624 46.5 198.5C47.5364 200.601 45.0941 202.625 46.5 204.5C46.8314 204.942 47.0374 205.198 47.5 205.5C48.334 206.044 50 206 50 206H55.5L65.5 206.5L74 207C74 207 78.7748 207.215 81.5 207C84.0603 206.798 86.1573 207.289 88 205.5C88.8169 204.707 89.0376 204.04 89.5 203C90.154 201.529 90.1816 200.578 90.5 199C90.7348 197.836 91 196 91 196L64.5 195.5L56 195C56 195 49.6716 194.891 48.5 194.5C47.3284 194.109 46.6716 193.891 45.5 193.5C45.5 193.5 43.4762 192.873 42.5 192C41.7724 191.349 41.5023 190.837 41 190C38.4885 185.814 39.8531 182.839 40.5 178C40.6574 176.823 41.1724 175.642 41.5 174.5C41.79 173.489 42.5 172 42.5 172C42.5 172 43.1054 170.475 43.5 169.5C44.4526 167.147 46 163.5 46 163.5C46 163.5 48.596 158.537 50.5 155.5C51.6219 153.71 53.5 151 53.5 151C53.5 151 55.8854 148.209 57.5 146.5C59.017 144.894 59.7571 143.857 61.5 142.5C62.9533 141.368 63.9175 140.943 65.5 140C66.8524 139.194 69 138 69 138C69 138 70.8115 137.336 72 137C72.7748 136.781 72.8843 136.519 73.5 136C74.4084 135.235 74.0965 134.471 74.5 133.5C75.238 131.724 76.5 129 76.5 129C76.5 129 78.0879 125.498 79.5 123.5C80.8571 121.58 83 119 83 119C83 119 87.5474 114.062 89.5 112.5C91.4526 110.938 92.5474 110.062 94.5 108.5C95.8668 107.719 96.6332 107.281 98 106.5C99.3668 105.719 103.128 104.777 106.5 104C109.972 103.2 115.5 102.5 115.5 102.5C115.5 102.5 121.89 101.517 126 101C129.509 100.559 135 100 135 100L143.5 99.5L154.5 99C154.5 99 155.749 99.2854 156.5 99.5C157.828 99.8793 159.5 101.5 159.5 101.5C159.5 101.5 160.408 102.722 161 104C161.598 105.29 162 105.571 162 108.5C162 111.429 162 112.571 162 115.5V126L161.5 131L161 133L152.5 133.5L145.5 134L137 134.5C137 134.5 136.002 134.301 135.5 134C134.81 133.586 134.983 132.805 135 132C135.028 130.69 136.5 129 136.5 129L143 122C143 122 147.209 117.626 149.5 114.5C150.749 112.796 152.5 110 152.5 110C152.5 110 153.815 108.297 154 107C154.083 106.42 154.391 105.695 154 105.5C153.609 105.305 153.391 105.195 153 105C152.609 104.805 151 106 151 106C151 106 148.823 107.465 147.5 108.5C143.802 111.392 139 117 139 117C139 117 133.358 122.96 130 127C128.402 128.923 127.862 130.331 126 132C124.749 133.121 123.969 133.686 122.5 134.5C121.199 135.221 119 136.5 119 136.5C119 136.5 116.036 137.474 114 138C110.969 138.783 106 138.5 106 138.5L93.5 139L84 139.5C84 139.5 80 139.5 79.5 140C79 140.5 79 140.5 79 141C79 141.5 80.5 142.5 80.5 142.5H85H94L108 142L118.5 141.5H126.5C126.5 141.5 126.237 142.133 126 142.5C125.321 143.55 124.398 144.13 123.5 145C121.476 146.958 119.5 150.5 119.5 150.5L116.5 156.5L113.5 163L110.5 169.5C110.5 169.5 109.487 172.643 108.5 174.5C107.382 176.605 106.768 177.902 105 179.5C104.276 180.155 103.859 180.536 103 181C101.416 181.855 98.5 182 98.5 182L66.5 182.5C66.5 182.5 64.4574 182.116 64 183C63.7309 183.52 63.6666 184.018 64 184.5C64.3515 185.008 65.5 185 65.5 185L83 185.5L104.5 185C104.5 185 108.002 185.312 110 184.5C111.055 184.071 111.82 183.914 112.5 183C113.108 182.182 112.957 181.476 113.25 180.5C113.543 179.524 113.654 178.959 114 178C114.741 175.946 115.337 174.847 116.5 173C117.833 170.884 118.638 169.669 120.5 168C121.751 166.879 122.471 166.195 124 165.5C125.639 164.755 126.714 164.722 128.5 164.5C130.825 164.211 134.5 164.5 134.5 164.5C134.5 164.5 136.651 164.78 138 165C139.647 165.268 142 166 142 166L146 167C146 167 147.813 167.472 149 167.5C150.38 167.532 151.241 167.566 152.5 167C154.393 166.149 154.837 164.72 156 163C157.223 161.191 157.811 160.072 158.5 158C159.31 155.563 159.5 151.5 159.5 151.5L159 139C159 139 159.086 137.914 159.5 137.5C159.914 137.086 161 137.5 161 137.5C161 137.5 161.589 138.281 162 139C162.775 140.356 162.5 143 162.5 143V154L162 166.5C162 166.5 161.789 170.86 162.5 173.5C162.661 174.096 162.948 174.724 163.5 175C164.052 175.276 165.16 175.034 166 174.5C166.824 173.976 167.5 172.5 167.5 172.5C167.5 172.5 168.33 170.706 168.703 169.5C169.173 167.978 169.5 165.5 169.5 165.5L170.5 155.5L171 146V134C171 134 171.538 122.721 172 115.5C172.35 110.03 172.853 106.979 173 101.5C173.089 98.1817 173 93 173 93C173 93 167.665 92.822 164.254 93C160.624 93.1895 158.603 93.5226 155 94C151.277 94.4933 149.218 94.967 145.5 95.5C138.883 96.4487 128.5 97.5 128.5 97.5L110.5 100L101 102C101 102 97.9618 102.955 96 103C95.4144 103.013 94.9142 102.914 94.5 102.5C94.0858 102.086 93.9681 101.085 94 100.5C94.0647 99.314 94.2492 98.9203 95 98C95.445 97.4545 96.5 97 96.5 97L107 96L122 94L142.5 91.5L156.5 90L168 89H177.5L186 90.5L204 94L218 97L238 101L252.5 103.5L266.5 106.5L278.5 109L287 110.5L290 111.5V126.5V194V197L289.5 201.5L289 207V211.5C289 211.5 288.843 215.161 289.5 217C289.883 218.072 289.81 218.594 290.5 219.5C291.337 220.598 291.752 220.909 293 221.5C293.9 221.926 295.5 222 295.5 222H303.5" stroke="black"/>
</svg>
