<svg width="331" height="331" viewBox="0 0 331 331" fill="none" xmlns="http://www.w3.org/2000/svg">
<circle cx="165.5" cy="165.5" r="165.5" fill="#E4E4E4"/>
<path d="M37.5 205.362H54.4129L89.7763 182.173M168.575 159.552L160.503 148.774L155.89 144.154L152.431 141.844H151.278L132.059 154.447M168.575 159.552L175.878 164.942L181.644 169.946L178.953 162.247L168.191 137.225L161.272 118.362L161.124 117.977M168.575 159.552L164.347 156.473L157.812 151.083L153.2 147.619L151.662 146.849L143.974 152.238L95.1577 184.575L60.1787 208.057L59.7943 208.827L100.539 239.239L169.344 240.394L180.107 228.845L194.713 213.062L208.167 198.433L218.161 187.269L235.074 169.561L239.686 164.942L239.302 164.557H222.773L219.314 166.867L210.089 174.181L207.014 177.646L205.476 179.57L205.092 181.495L205.476 183.42L207.398 184.96L210.473 186.115L215.47 187.269L218.545 188.424L223.158 190.734L225.08 192.274L227.001 195.739L228.923 201.513L230.461 208.827L231.614 214.986L232.767 219.221L235.074 223.071L239.686 226.92L248.143 230.77L251.602 231.925L251.986 233.079L251.602 234.234L245.452 244.243L245.836 244.628L254.677 234.619L262.749 225.765L274.665 212.677L284.659 201.513L292.347 194.199L293.5 192.659L293.116 191.889L288.503 188.809L275.05 179.57L256.983 167.252L245.452 159.168L244.514 158.783H238.533L227.77 159.168L212.01 159.937L211.242 160.322L194.713 180.725L193.56 181.88V180.725L205.092 162.632L211.867 151.993C211.867 151.993 215.252 145.883 217.392 141.844C219.312 138.22 220.537 136.745 222.316 133.049C224.156 129.225 225.37 125.789 226.888 121.827C228.367 117.965 229.692 111.433 229.692 111.433C229.692 111.433 231.19 107.041 231.614 104.119C232.153 100.399 231.954 98.2376 231.614 94.4946C231.422 92.3773 231.323 91.1769 230.845 89.1052C230.312 86.7892 228.923 83.3309 228.923 83.3309C228.923 83.3309 227.253 79.4638 225.848 77.1715C224.058 74.25 220.467 70.2423 220.467 70.2423C220.467 70.2423 217.349 67.2187 215.086 65.6228C212.558 63.841 208.167 61.7732 208.167 61.7732C208.167 61.7732 203.801 59.8612 200.863 59.0785C198.502 58.4493 197.139 58.2172 194.713 57.9236C190.242 57.3828 187.646 57.3353 183.182 57.9236C180.905 58.2236 179.632 58.4777 177.416 59.0785C174.482 59.8739 172.842 60.4342 170.113 61.7732C166.897 63.3509 165.185 64.4936 162.425 66.7777C160.134 68.6739 158.99 69.5628 157.01 71.7821C155.089 73.9357 153.963 75.4952 152.431 77.9414C150.43 81.1362 149.74 83.2064 148.587 86.7955C148.063 88.4273 147.434 91.03 147.434 91.03C147.434 91.03 146.888 93.3628 146.665 94.8796C146.031 99.1929 146.365 104.54 146.665 106.043C146.965 107.547 147.134 108.39 147.434 109.893C147.434 109.893 148.051 112.965 148.587 114.897C149.975 119.9 153.584 127.216 153.584 127.216L160.503 141.844L168.575 156.088L176.338 169.946M168.575 159.552L170.881 163.017L176.338 169.946M160.503 83.3309C160.503 83.3309 158.824 86.7595 158.197 89.1052C157.762 90.7288 157.653 91.6742 157.428 93.3398C156.764 98.2562 156.631 101.147 157.428 106.043C157.902 108.958 159.35 113.358 159.35 113.358L161.124 117.977M160.503 83.3309L163.194 80.2512C163.194 80.2512 166.022 77.1675 168.191 75.6317C171.041 73.6132 176.263 71.7821 176.263 71.7821C176.263 71.7821 179.752 70.9273 182.029 70.6272C186.493 70.0389 189.125 69.848 193.56 70.6272C195.389 70.9486 196.422 71.1629 198.173 71.7821C200.896 72.7453 202.292 73.6624 204.707 75.2467C206.943 76.7135 208.272 77.5186 210.089 79.4813C211.929 81.4693 212.662 82.863 213.932 85.2556C215.006 87.2776 215.541 88.4645 216.239 90.6451C216.85 92.5553 217.085 93.6676 217.392 95.6495C217.807 98.3277 217.969 99.8754 217.776 102.579C217.569 105.49 217.314 107.18 216.239 109.893C215.346 112.146 214.497 114.034 213.173 116.064C212.057 117.776 211.453 117.996 210.089 119.517C208.021 121.822 206.525 122.82 203.938 124.521C201.525 126.109 200.088 126.92 197.404 127.986C194.797 129.021 193.261 129.509 190.485 129.911C187.365 130.362 185.523 130.428 182.413 129.911C180.257 129.552 179.095 129.092 177.032 128.371C173.923 127.284 172.138 126.649 169.344 124.906C166.896 123.379 165.728 122.211 163.578 120.287C162.597 119.409 161.124 117.977 161.124 117.977M160.503 83.3309C160.503 83.3309 163.184 78.5864 165.5 76.0167C167.137 74.2001 170.113 71.7821 170.113 71.7821C170.113 71.7821 173.686 69.2968 176.263 68.3175C179.263 67.1774 180.6 66.7821 183.786 66.3927C187.812 65.9006 190.678 65.9798 194.713 66.3927C197.144 66.6415 200.863 67.5476 200.863 67.5476C200.863 67.5476 205.46 69.1251 208.167 70.6272C210.899 72.1438 212.447 73.0821 214.701 75.2467C217.498 77.9324 218.701 79.8783 220.467 83.3309C222.134 86.5896 222.772 88.6064 223.542 92.1849C224.871 98.3575 224.156 102.069 223.542 108.353C223.321 110.617 223.302 111.915 222.773 114.127C222.021 117.277 219.698 121.827 219.698 121.827C219.698 121.827 216.816 129.172 214.701 133.76C211.718 140.231 209.531 143.606 206.245 149.929C204.137 153.984 203.081 156.326 200.863 160.322C198.312 164.92 193.944 171.871 193.944 171.871L187.41 184.575L186.641 185.345M186.641 185.345L185.488 184.19L178.185 173.044M186.641 185.345L172.803 178.415L132.059 154.447M176.338 169.946L177.416 171.871L178.185 173.044M176.338 169.946L175.11 171.486L172.035 174.181L157.428 185.345L156.275 186.115H154.737L128.215 184.96L99.3859 182.65L89.7763 182.173M89.7763 182.173L132.059 154.447M178.185 173.044L163.962 184.19L144.359 199.973L133.212 209.212H131.674L98.6171 186.5L97.464 186.115L67.0976 207.287L66.7132 208.057L102.077 233.464H103.23L126.293 213.832H127.446L128.983 214.986L129.176 215.371M129.176 215.371L129.368 215.756L125.524 219.221L111.302 231.155L107.458 234.619L107.074 235.004L108.227 235.389L134.365 235.774L139.362 216.526V215.756L138.209 215.371H129.176ZM129.176 215.371L136.671 209.982H184.335L186.257 188.424L188.179 187.269L190.869 186.5L191.254 186.885L189.332 209.597H193.176V210.367L168.959 235.774L167.422 236.544H140.131L139.746 236.159L143.974 216.141L144.359 215.371L190.869 214.986H195.482L197.02 215.756L243.146 246.553L242.761 247.708L223.542 269.65L222.773 270.035L221.62 269.265L175.878 240.009H174.341L172.419 241.549V242.318L220.851 273.5H238.533" stroke="black"/>
</svg>
