<svg width="80" height="148" viewBox="0 0 80 148" fill="none" xmlns="http://www.w3.org/2000/svg">
<path d="M66.7255 39.4369C66.7255 39.4369 66.0557 37.9599 65.3344 37.2499C64.3448 36.2757 62.3536 35.4605 62.3536 35.4605C62.3536 35.4605 58.9324 34.4975 56.7895 34.0687C54.6465 33.6399 51.2253 33.4722 51.2253 33.4722H44.4688L29.7635 33.6711C29.7635 33.6711 26.0283 33.6162 23.8019 34.0687C22.2341 34.3873 21.0747 34.3776 19.6288 35.0628C19.0634 35.3308 18.7998 35.6518 18.6352 36.2558C18.5739 36.4805 18.6037 36.6214 18.6352 36.8522C18.6666 37.083 18.7928 37.5039 19.0326 37.8463C19.4911 38.501 20.0982 38.5 20.8211 38.8404C21.8649 39.3321 22.5086 39.4697 23.6032 39.8346C25.1405 40.347 27.5776 41.0275 27.5776 41.0275C27.5776 41.0275 29.2633 41.443 30.3597 41.624C32.1274 41.9158 34.9302 42.0216 34.9302 42.0216H41.488H47.2509H50.6291C50.6291 42.0216 51.3887 42.1875 51.8214 42.4193C52.0681 42.5514 52.4176 42.8169 52.4176 42.8169C52.4176 42.8169 52.5995 42.9956 52.6163 43.2145C52.6296 43.3877 52.4176 43.6122 52.4176 43.6122C52.4176 43.6122 52.1429 43.879 51.8214 44.0098C50.0947 44.7126 47.0522 44.0098 47.0522 44.0098C47.0522 44.0098 44.5804 43.6677 43.0778 43.2145C41.5156 42.7434 40.1902 42.7945 39.3021 41.4251C39.1132 41.1339 39.0335 40.9523 38.9046 40.6299C38.8135 40.4019 38.7247 40.2782 38.7059 40.0334C38.6814 39.7142 38.7368 39.5107 38.9046 39.2381C39.1081 38.9075 39.6995 38.6416 39.6995 38.6416C39.6995 38.6416 41.0095 38.0869 41.8854 37.8463C42.6486 37.6368 43.0895 37.5631 43.8726 37.4487C45.1037 37.2689 45.8099 37.1173 47.0522 37.051C49.0686 36.9435 50.2012 36.8522 52.2189 36.8522C53.6934 36.8522 54.5232 36.9549 55.9946 37.051C56.7728 37.1019 57.2179 37.0923 57.9818 37.2499C58.5351 37.364 58.8357 37.4722 59.3728 37.6475C60.0032 37.8532 60.4969 37.8558 60.9626 38.244C61.4282 38.6322 61.4906 38.651 61.9562 39.0393C62.4219 39.4275 62.6285 39.7964 62.7511 40.2322C62.8771 40.6807 62.9498 40.9593 62.9498 41.4251C62.9498 42.1239 62.8582 42.524 62.7511 43.2145C62.6644 43.7731 62.556 44.0785 62.3536 44.6063C61.9293 45.7129 60.7639 47.191 60.7639 47.191L57.5843 51.3663L50.033 59.3192C50.033 59.3192 46.7259 62.3633 45.065 64.6874C44.1127 66.0197 43.5699 66.7813 42.879 68.2662C42.2886 69.5352 42.0661 70.2989 41.6867 71.6462C41.4059 72.6433 41.2586 73.2087 41.0906 74.2309C40.6622 76.8358 40.6617 78.386 41.0906 80.9909C41.3384 82.4961 41.5974 83.3228 42.0842 84.7685C42.4844 85.9572 42.6817 86.6465 43.2765 87.7508C43.8585 88.8316 44.3417 89.3438 45.065 90.3355C46.1722 91.8539 46.8926 92.6294 48.0458 94.1132C48.0458 94.1132 51.1251 98.0738 53.0138 100.674C55.1777 103.654 56.5488 105.233 58.3792 108.428C59.0352 109.574 59.452 110.196 59.969 111.411C60.2288 112.021 60.3456 112.375 60.5651 113.001C60.7277 113.465 60.8748 113.711 60.9626 114.194C61.0736 114.805 61.1048 115.18 60.9626 115.785C60.9064 116.024 60.8856 116.168 60.7639 116.381C60.4862 116.867 60.0537 117.091 59.5716 117.375C58.9736 117.728 58.6455 117.769 57.9818 117.972C57.1621 118.223 55.7959 118.37 55.7959 118.37H52.815H48.0458H43.4753C43.4753 118.37 42.0937 118.562 41.8854 117.972C41.8079 117.752 41.7937 117.59 41.8854 117.375C41.9719 117.174 42.1264 116.933 42.2829 116.779C43.3818 115.699 44.182 115.221 45.2637 114.194C46.4609 113.058 48.0458 111.411 48.0458 111.411C48.0458 111.411 48.7712 110.575 48.8406 110.019C48.8599 109.865 48.8406 109.621 48.8406 109.621C48.8406 109.621 48.7646 109.346 48.6419 109.224C48.4684 109.05 48.2912 109.026 48.0458 109.025C47.5489 109.022 47.2452 109.315 46.8535 109.621C43.5273 112.22 37.911 115.586 37.911 115.586C37.911 115.586 37.5573 115.747 37.3149 115.785C37.0849 115.821 36.8833 115.95 36.7187 115.785C36.5541 115.62 36.6637 115.415 36.7187 115.188C36.8104 114.811 36.8818 114.702 37.1162 114.393C39.4453 111.319 41.3191 109.955 43.6739 106.838C44.3103 105.995 45.2637 104.651 45.2637 104.651C45.2637 104.651 45.4379 104.425 45.4624 104.253C45.4734 104.176 45.4869 104.128 45.4624 104.054C45.3888 103.833 44.8662 104.054 44.8662 104.054L43.8726 104.85L37.3149 109.82L31.1545 113.995C31.1545 113.995 30.9265 114.157 30.7571 114.194C30.6056 114.228 30.4985 114.264 30.3597 114.194C30.1402 114.084 30.172 113.843 30.1609 113.598C30.1335 112.992 30.3653 112.868 30.7572 112.405C32.0363 110.895 33.0438 110.266 34.3341 108.627C35.1998 107.528 35.9925 106.976 36.52 105.645C36.6104 105.417 36.6748 105.29 36.7187 105.048C36.7742 104.743 36.7742 104.559 36.7187 104.253C36.6748 104.012 36.6517 103.864 36.52 103.657C36.4021 103.471 36.3189 103.357 36.1225 103.259C35.8449 103.12 35.6307 103.192 35.3277 103.259C34.9889 103.334 34.8382 103.492 34.5328 103.657C33.453 104.24 31.9494 105.446 31.9494 105.446L26.584 110.417L20.4236 115.586C20.4236 115.586 19.9699 115.92 19.6288 115.984C19.3999 116.027 19.2642 116.008 19.0326 115.984C18.7143 115.951 18.4967 115.973 18.2377 115.785C17.7313 115.417 18.039 114.194 18.039 114.194C18.039 114.194 18.1703 111.996 18.4364 110.615C18.6182 109.672 18.7052 109.132 19.0326 108.23C19.4826 106.989 20.6224 105.247 20.6224 105.247C20.6224 105.247 21.4348 103.891 22.0134 103.06C22.8034 101.926 23.2616 101.292 24.1993 100.277C25.1311 99.2677 25.5982 98.8469 26.584 97.8908C27.2145 97.2794 28.3725 96.3002 28.3725 96.3002L33.5392 91.3296L35.7251 88.7449L37.3149 86.5579C37.3149 86.5579 38.002 85.6326 38.3085 84.9673C38.6476 84.2311 38.7468 83.7742 38.9046 82.9791C39.1017 81.9861 39.0661 81.4061 39.1033 80.3944C39.1376 79.4633 39.1033 78.0085 39.1033 78.0085C39.1033 78.0085 39.1645 76.6734 39.1033 75.8215C39.0585 75.1971 38.9794 74.8475 38.9047 74.2309C38.8277 73.5953 38.8611 73.2615 38.7059 72.6403C38.5507 72.0191 38.4981 71.6612 38.3085 71.0497C38.112 70.4161 37.7123 69.4591 37.7123 69.4591L36.9174 67.8686L35.9238 66.278L34.7315 64.6874L30.9558 60.7109L27.5776 57.9274L23.4044 53.951C23.4044 53.951 21.4713 52.2392 20.4236 50.9686C19.4647 49.8057 18.2377 47.7875 18.2377 47.7875C18.2377 47.7875 17.7194 46.9572 17.4428 46.3957C16.7594 45.008 16.657 44.1107 16.2505 42.6181C15.8942 41.3098 15.7007 40.5718 15.4556 39.2381C15.2572 38.1581 15.0582 36.4546 15.0582 36.4546L14.6608 33.2734C14.6608 33.2734 14.5255 32.0629 14.462 31.2852C14.1778 27.8028 14.462 22.3382 14.462 22.3382V19.9523V18.9582C14.462 18.9582 14.414 18.6467 14.2633 18.5605C14.1286 18.4835 13.8565 18.3617 13.4685 18.3617C13.0805 18.3617 13.0616 18.3617 12.6736 18.3617C12.2856 18.3617 11.2826 18.7594 11.2826 18.7594C11.2826 18.7594 10.4558 19.1801 9.89147 19.3558C8.26132 19.8636 5.51962 19.3558 5.51962 19.3558L4.4077 18.9582C4.4077 18.9582 3.69245 18.6804 3.33376 18.3617C2.9153 17.9899 2.63804 17.8415 2.33997 17.3676C2.09896 16.9844 2.05422 16.6134 1.94272 16.1747C1.84711 15.7984 1.80377 15.5719 1.74381 15.1805C1.48484 13.4903 1.28631 12.3853 1.94272 10.8064C2.07602 10.4858 2.17469 10.3164 2.34016 10.0112C2.5559 9.61318 2.66231 9.37734 2.93632 9.01704C3.43586 8.36019 3.86743 7.92378 4.52583 7.42646C6.18775 6.17113 7.37543 5.95526 9.29537 5.23941C10.2152 4.89645 10.7418 4.73308 11.68 4.44412C13.443 3.90112 14.4459 3.63328 16.2506 3.25118C17.5612 2.97369 18.3069 2.87196 19.6288 2.65471C19.6288 2.65471 22.049 2.27666 23.6032 2.05825C24.7662 1.89482 25.4153 1.77615 26.584 1.6606C27.8221 1.5382 28.5218 1.53866 29.7636 1.46178C32.3243 1.30323 33.7565 1.13103 36.3213 1.06413C38.2608 1.01355 41.2893 1.06413 41.2893 1.06413C41.2893 1.06413 46.1373 0.919833 49.2381 1.06413C51.2596 1.15821 54.4049 1.46178 54.4049 1.46178L57.3857 1.85942C57.3857 1.85942 60.9094 2.40433 63.1486 2.85354C64.238 3.0721 65.9306 3.45001 65.9306 3.45001C65.9306 3.45001 68.8727 3.91412 70.6999 4.44412C71.6427 4.71759 73.0846 5.23941 73.0846 5.23941C73.0846 5.23941 74.6073 5.76312 75.469 6.23366C75.469 6.23366 76.3792 6.62849 76.8603 7.02881C77.1134 7.23946 77.4564 7.62528 77.4564 7.62528L77.8539 8.22175C78.0091 8.60998 78.0961 8.82764 78.2513 9.21586C78.4065 9.60409 78.5904 11.2811 78.45 12.5959C78.3999 13.0655 78.2513 13.7888 78.2513 13.7888C78.2513 13.7888 78.0424 14.6477 77.8539 15.1805C77.6567 15.738 77.2577 16.5723 77.2577 16.5723C77.2577 16.5723 77.0433 17.3233 76.6615 17.5664C76.3916 17.7383 76.1855 17.7387 75.8667 17.7652C75.2289 17.8184 74.6975 17.528 74.0779 17.3677C72.6743 17.0047 71.864 16.6841 70.6999 16.3735C69.5359 16.0629 68.8832 15.8888 67.7191 15.5782L64.1419 14.783L61.7575 14.1864L59.5716 13.7888C59.5716 13.7888 57.6379 13.5066 56.3918 13.3913C54.1496 13.1838 52.8799 13.2606 50.6292 13.1923C47.4479 13.0958 45.6643 13.0208 42.4817 12.9935C35.9612 12.9375 25.7891 13.3911 25.7891 13.3911L19.8275 13.9876L16.648 14.3853L13.4685 14.9817C13.4685 14.9817 12.3142 15.204 11.68 15.5782C11.3458 15.7754 10.8851 16.1747 10.8851 16.1747C10.8851 16.1747 10.4179 16.6477 10.289 16.9701C10.1978 17.1981 10.1381 17.3258 10.09 17.5666C10.0139 17.9472 9.89127 18.3713 9.89127 18.7595C9.89127 19.6136 9.96689 19.9566 10.289 20.7476C10.3544 20.9084 10.4877 21.1452 10.4877 21.1452C10.4877 21.1452 10.7193 21.293 10.8851 21.344C11.3363 21.4829 12.0775 21.1452 12.0775 21.1452L14.0647 20.5488L16.648 19.9523C16.648 19.9523 18.5795 19.5521 19.8275 19.3558C22.0627 19.0044 25.5904 18.7594 25.5904 18.7594C25.5904 18.7594 28.0094 18.4794 29.5648 18.3617C31.0372 18.2503 31.8665 18.2485 33.3405 18.1629C35.6699 18.0276 36.9705 17.8539 39.3021 17.7652C42.4041 17.6472 47.2509 17.7652 47.2509 17.7652H55.1997L58.9754 17.9641C58.9754 17.9641 60.4314 18.0589 61.3601 18.1629C62.8436 18.329 65.1358 18.7594 65.1358 18.7594C65.1358 18.7594 66.355 18.9658 67.123 19.157C67.9092 19.3527 68.4081 19.3489 69.1102 19.7535C69.6354 20.0561 70.3025 20.7476 70.3025 20.7476C70.3025 20.7476 70.6834 21.0947 70.8986 21.344C71.2644 21.7678 71.2886 22.2153 71.4946 22.7359C71.7532 23.3897 71.8268 23.6263 71.8922 24.3264C72.0081 25.5657 72.091 27.5076 72.091 27.5076L71.8922 33.0746L71.4948 35.6593L70.8986 38.8404L69.5076 43.0157C69.5076 43.0157 68.687 45.8615 67.9178 47.5886C66.9698 49.7175 64.937 52.758 64.937 52.758L63.9434 53.951L61.1614 57.1321L55.1997 62.898C55.1997 62.898 52.2225 65.3655 50.4305 67.0733C49.3973 68.0578 47.8471 69.658 47.8471 69.658C47.8471 69.658 47.0986 70.7345 46.6548 71.4474C46.4155 71.8317 46.0586 72.4415 46.0586 72.4415C46.0586 72.4415 45.776 72.9091 45.6612 73.2368C45.5049 73.6824 45.4976 73.9587 45.4625 74.4297C45.4336 74.8169 45.4246 75.0374 45.4625 75.4238C45.5011 75.8178 45.5228 76.047 45.6612 76.4179C45.8194 76.8421 46.2573 77.412 46.2573 77.412C46.2573 77.412 47.164 78.6781 47.8471 79.4003C48.7555 80.3606 49.4208 80.7342 50.4305 81.5873C51.9032 82.8317 54.2061 84.7685 54.2061 84.7685C54.2061 84.7685 56.7508 86.6967 58.1806 88.1485C58.9134 88.8926 59.969 90.1367 59.969 90.1367C59.969 90.1367 60.8488 91.0796 61.3601 91.7273C61.9472 92.471 62.7511 93.7155 62.7511 93.7155L63.546 95.1073C63.546 95.1073 64.1951 96.0515 64.5396 96.6979C64.8993 97.3726 65.3345 98.4873 65.3345 98.4873C65.3345 98.4873 65.8344 99.9364 66.1294 100.873C66.3728 101.646 66.5628 102.067 66.7255 102.861C66.8358 103.399 66.9242 104.253 66.9242 104.253L67.5204 107.633C67.5204 107.633 67.9523 110.413 68.1166 112.206C68.223 113.368 68.1995 114.027 68.3153 115.188C68.4319 116.358 68.5774 117.004 68.7127 118.171C68.9103 119.875 68.8621 120.848 69.1102 122.545C69.2929 123.795 69.3675 124.508 69.7063 125.726C69.9038 126.436 70.3025 127.515 70.3025 127.515L71.0974 129.702L71.6935 131.492C71.6935 131.492 71.9644 132.455 72.091 133.082C72.1843 133.545 72.2455 133.805 72.2897 134.275C72.3479 134.894 72.2897 135.245 72.2897 135.866C72.2897 136.332 72.3825 136.602 72.2897 137.059C72.2064 137.469 72.0814 137.68 71.8922 138.053C71.3206 139.18 69.7063 140.439 69.7063 140.439C69.7063 140.439 67.8761 142.057 66.5268 142.825C65.0735 143.651 64.1455 143.909 62.5524 144.415C60.4346 145.089 56.9882 145.608 56.9882 145.608C56.9882 145.608 53.8481 146.157 51.8215 146.404C47.655 146.91 41.0906 147 41.0906 147C38.1416 146.922 36.4882 146.879 33.5392 146.801C33.5392 146.801 31.4717 146.771 30.161 146.602C28.6666 146.41 26.3853 145.807 26.3853 145.807C26.3853 145.807 23.4688 145.245 21.616 144.813C20.3696 144.522 19.6672 144.369 18.4365 144.018C15.8162 143.269 11.8787 141.632 11.8787 141.632C11.8787 141.632 10.3793 141.122 9.49409 140.638C8.75754 140.235 8.37201 140.154 7.70535 139.644C7.13712 139.209 6.73671 138.83 6.31457 138.252C6.00741 137.831 5.71815 137.059 5.71815 137.059L5.12224 135.667C5.12224 135.667 4.99 135.185 4.92352 134.872C4.4718 132.744 4.54345 131.402 5.12224 129.305C5.2529 128.831 5.32472 128.563 5.51968 128.112C5.76822 127.537 5.95825 127.235 6.31457 126.72C6.59755 126.311 6.7739 126.093 7.10945 125.726C7.6665 125.117 8.04447 124.836 8.69921 124.334C9.36543 123.823 9.7621 123.564 10.4877 123.141C11.2377 122.705 12.4749 122.147 12.4749 122.147C12.4749 122.147 13.5597 121.767 14.2634 121.551C15.4148 121.196 17.2442 120.755 17.2442 120.755C17.2442 120.755 18.5645 120.342 19.4301 120.159C20.579 119.915 21.2457 119.908 22.4109 119.761C23.7289 119.595 24.4617 119.413 25.7891 119.364C26.4096 119.34 27.3789 119.364 27.3789 119.364H42.0842C42.0842 119.364 44.9971 119.393 46.8535 119.562C48.0997 119.676 50.033 119.96 50.033 119.96C50.033 119.96 53.0714 120.249 55.001 120.557C56.9549 120.868 59.969 121.551 59.969 121.551L65.1358 122.942C65.1358 122.942 66.9776 123.48 68.1166 123.937C68.987 124.286 69.5684 124.347 70.3025 124.931C70.6461 125.204 70.9819 125.302 71.0974 125.726C71.1586 125.951 71.1213 126.091 71.0974 126.322C71.0644 126.641 71.0546 126.838 70.8986 127.118C70.626 127.607 69.7063 127.913 69.7063 127.913C69.7063 127.913 68.0078 128.511 66.9242 128.907C65.6787 129.363 65.3744 129.712 63.7447 130.1C62.115 130.488 61.2013 130.706 59.5716 131.094C57.9419 131.482 56.4299 131.631 54.4049 131.889C52.0073 132.196 48.2445 132.486 48.2445 132.486L42.8791 132.685H33.5392L25.9879 132.287L22.8083 131.889C22.8083 131.889 20.479 131.517 19.0327 131.094C17.9253 130.77 16.2506 130.1 16.2506 130.1C16.2506 130.1 14.6416 129.574 13.6672 129.106C12.9469 128.76 12.5153 128.595 11.8787 128.112C11.2667 127.647 10.4877 126.72 10.4877 126.72C10.4877 126.72 9.64262 125.695 9.29537 124.931C8.86706 123.988 8.81485 123.375 8.69921 122.346C8.58653 121.343 8.69921 119.761 8.69921 119.761C8.69921 119.761 8.56374 116.344 8.89793 114.194C9.01957 113.412 9.29537 112.206 9.29537 112.206L9.89153 110.019C9.89153 110.019 10.3984 107.687 10.8851 106.241C11.2854 105.053 12.0775 103.259 12.0775 103.259L13.6672 99.879L15.257 96.8967C15.257 96.8967 16.6164 94.2945 17.6416 92.7214C18.642 91.1864 20.4237 88.9438 20.4237 88.9438C20.4237 88.9438 23.1181 85.5906 24.9943 83.5756C26.4904 81.9686 27.5281 81.2561 28.9687 79.5991C30.3134 78.0525 31.1632 77.2213 32.1482 75.4238C32.3985 74.9671 32.4325 74.7395 32.5454 74.231C32.6464 73.7762 32.7106 73.5091 32.7444 73.0379C32.7888 72.4175 32.6617 71.4474 32.6617 71.4474C32.6617 71.4474 32.5391 70.6962 32.3469 70.2544C32.1235 69.7411 31.552 69.0615 31.552 69.0615L28.5712 66.0792L24.1994 62.1027C24.1994 62.1027 21.7486 59.7071 20.225 58.1262C19.0435 56.9004 18.2991 56.2814 17.2442 54.9451C16.0968 53.4916 14.6608 50.9686 14.6608 50.9686L12.6736 46.7934C12.6736 46.7934 11.5437 44.4249 11.0839 42.8169C10.7782 41.7481 10.2887 40.0335 10.2887 40.0335C10.2887 40.0335 9.95087 38.2284 9.69281 37.051C9.12373 34.4546 8.89793 30.2911 8.89793 30.2911L8.69921 22.537" stroke="#FF6A00" stroke-width="2"/>
</svg>
