<svg width="131" height="139" viewBox="0 0 131 139" fill="none" xmlns="http://www.w3.org/2000/svg">
<path d="M0.688965 136.514C0.688965 136.514 8.00267 137.014 12.689 137.014C15.4226 137.014 17.0585 137.258 19.689 136.514C20.7008 136.228 22.189 135.514 22.189 135.514C22.189 135.514 24.7009 134.1 26.189 133.014C28.3111 131.466 29.4348 130.469 31.189 128.514C33.2505 126.216 33.9284 124.55 35.689 122.014C41.1257 114.182 49.689 102.014 49.689 102.014L65.689 79.0139L87.689 48.0139L97.689 33.5139L109.189 17.0139C109.189 17.0139 113.393 11.6916 115.689 8.01394C116.292 7.04814 116.483 6.63393 116.689 5.5141C116.795 4.93795 116.689 4.0141 116.689 4.0141C116.689 4.0141 116.334 3.03399 115.689 2.51394C115.141 2.07199 114.846 1.76809 114.189 1.51394C113.096 1.09101 111.859 0.951977 110.689 1.0141C109.117 1.09757 108.63 1.38037 107.189 2.01394C105.793 2.62771 105.305 3.47504 104.189 4.51394C100.929 7.54722 97.189 13.5139 97.189 13.5139L83.189 33.5139L69.689 53.0139L55.689 73.0139L39.189 96.5139L30.189 109.514L22.189 120.514C22.189 120.514 20.1064 123.112 19.189 125.014C18.7322 125.961 18.3584 126.476 18.189 127.514C18.0631 128.285 17.8015 128.836 18.189 129.514C18.5383 130.125 19.0184 130.299 19.689 130.514C20.4329 130.752 21.689 130.514 21.689 130.514C21.689 130.514 27.6202 128.376 31.189 126.514C35.3183 124.359 41.189 120.014 41.189 120.014C41.189 120.014 47.8587 116.115 51.689 113.014C54.3739 110.84 55.6587 109.366 58.189 107.014C61.3257 104.098 63.2197 102.6 66.189 99.5139C69.7427 95.8206 74.689 89.5139 74.689 89.5139C74.689 89.5139 80.5074 81.9554 84.689 77.5139C86.7712 75.3023 87.76 73.838 90.189 72.0139C91.662 70.9078 92.486 70.2163 94.189 69.5139C95.6775 68.9 98.189 68.5139 98.189 68.5139C98.189 68.5139 101.561 68.2249 103.689 68.5139C104.676 68.6479 105.256 68.6657 106.189 69.0139C107.256 69.4122 108.232 69.8971 109.189 70.5141C110.601 71.4243 111.04 71.7885 112.189 73.0139C113.152 74.0412 113.474 74.8009 114.189 76.0139C115.076 77.5186 115.608 78.367 116.189 80.0139C116.852 81.8917 116.798 83.0613 117.189 85.0139C117.579 86.9666 117.689 90.0141 117.689 90.0141C117.689 90.0141 118.124 94.2741 118.189 97.0139C118.221 98.3804 118.299 99.1515 118.189 100.514C118.029 102.499 117.752 103.604 117.189 105.514C116.595 107.531 116.122 108.629 115.189 110.514C114.49 111.925 114.178 112.789 113.189 114.014C112.058 115.415 111.259 116.133 109.689 117.014C109.308 117.228 109.088 117.337 108.689 117.514C105.12 119.1 102.086 119.441 98.689 117.514C97.6015 116.897 96.627 116.341 95.689 115.514C94.4459 114.419 94.1321 113.876 93.189 112.514C92.4434 111.437 92.1685 110.733 91.689 109.514C91.1686 108.191 90.9764 107.406 90.689 106.014C90.3314 104.282 90.3354 103.276 90.189 101.514C89.7525 96.26 89.5198 93.2434 90.189 88.0139C90.4661 85.8485 90.6227 84.6223 91.189 82.5139C91.7818 80.3067 92.2831 79.1123 93.189 77.0139C94.0542 75.0096 94.46 73.8182 95.689 72.0139C96.3928 70.9806 96.7988 70.3919 97.689 69.5139C98.8849 68.3344 101.189 67.0139 101.189 67.0139C101.189 67.0139 102.649 65.9764 103.689 65.5139C105.16 64.86 107.689 64.5139 107.689 64.5139C107.689 64.5139 109.831 64.3606 111.189 64.5139C112.789 64.6946 115.189 65.5139 115.189 65.5139C115.189 65.5139 117.735 66.5466 119.189 67.5139C120.459 68.3587 122.189 70.0139 122.189 70.0139L124.689 73.0139C124.689 73.0139 126.603 75.0615 127.189 77.0141C127.775 78.9667 128.103 79.5613 128.689 81.5139C129.275 83.4666 129.189 88.0139 129.189 88.0139C129.189 88.0139 129.463 95.6401 129.189 100.514C129.057 102.862 129.12 104.202 128.689 106.514C128.202 109.125 126.689 113.014 126.689 113.014C126.689 113.014 125.602 115.525 124.689 117.014C123.381 119.145 122.483 120.272 120.689 122.014C119.595 123.077 118.913 123.604 117.689 124.514C116.559 125.354 115.946 125.88 114.689 126.514C112.869 127.432 111.688 127.615 109.689 128.014C108.145 128.322 107.259 128.397 105.689 128.514C103.352 128.688 102.019 128.764 99.689 128.514C97.709 128.302 96.6092 128.041 94.689 127.514C92.485 126.909 91.1459 126.694 89.189 125.514C87.4116 124.442 86.6101 123.527 85.189 122.014C83.3706 120.078 82.6153 119.255 81.189 117.014C80.5775 116.054 80.1491 115.055 79.689 114.014C78.8842 112.193 78.689 109.014 78.689 109.014L78.189 103.014C78.189 103.014 78.2675 95.6685 77.689 91.0139C77.396 88.6566 76.689 85.0139 76.689 85.0139L75.689 81.5139L73.689 75.5139C73.689 75.5139 72.8824 73.3294 72.189 72.0139C70.9505 69.6646 68.189 66.5139 68.189 66.5139L65.689 63.0139L62.189 58.5139C62.189 58.5139 60.5581 56.7671 59.689 55.5139C59.0401 54.5783 58.5866 54.0808 58.189 53.0139C57.7741 51.901 57.8621 51.189 57.689 50.0139C56.3513 40.9346 58.8184 35.6215 57.689 26.5139C57.519 25.1437 57.189 23.0139 57.189 23.0139C57.189 23.0139 56.6633 20.854 56.189 19.5139C55.6928 18.1121 54.689 16.0139 54.689 16.0139C54.689 16.0139 53.5297 14.1434 52.689 13.0139C51.285 11.1279 50.5431 9.95987 48.689 8.51394C47.1037 7.27767 46.0322 6.81644 44.189 6.01394C42.4905 5.27449 41.4964 4.91976 39.689 4.51394C37.0149 3.91354 35.4283 3.60001 32.689 3.51416C30.5421 3.44688 29.3178 3.72837 27.189 4.01394C24.5567 4.36705 23.0718 4.84115 20.689 6.01394C17.5698 7.54915 15.9483 8.87165 13.689 11.5139C12.3164 13.1192 10.689 16.0139 10.689 16.0139C10.689 16.0139 8.89499 18.9482 8.18896 21.0139C7.60676 22.7174 7.18896 25.5139 7.18896 25.5139L6.68896 32.0139C6.68896 32.0139 6.50023 37.8088 6.68896 41.5139C6.80858 43.8622 6.79844 46.2568 7.18896 48.0142C7.57949 49.7715 7.79844 50.2566 8.18896 52.0139C8.57949 53.7713 9.28354 56.0115 10.689 58.0142C12.198 60.1645 13.7363 61.6471 15.689 63.0139C17.6416 64.3808 17.2363 64.1473 19.189 65.5142C21.1416 66.881 23.4119 67.2264 25.189 67.5139C27.318 67.8585 28.5351 67.6244 30.689 67.5139C32.0679 67.4432 32.8775 67.4457 34.189 67.0139C35.6843 66.5217 36.3917 65.9058 37.689 65.0139C39.6265 63.6819 40.7033 62.8364 42.189 61.0139C43.3529 59.5861 43.8008 58.6278 44.689 57.0139C45.3205 55.8664 45.7288 55.2403 46.189 54.0139C47.0912 51.6094 47.189 47.5139 47.189 47.5139C47.189 47.5139 47.6126 43.2535 47.689 40.5139C47.7379 38.7573 47.8285 37.7658 47.689 36.0139C47.5793 34.6376 47.189 32.5139 47.189 32.5139C47.189 32.5139 46.5395 28.7745 45.689 26.5139C44.9202 24.4707 44.3341 23.3726 43.189 21.5139C42.3079 20.0839 40.689 18.0139 40.689 18.0139C40.689 18.0139 39.3623 16.2417 38.189 15.5139C37.2954 14.9597 36.195 14.3199 35.189 14.0139C32.5669 13.2166 31.3011 13.1846 28.689 14.0139C26.9332 14.5714 26.0587 15.2822 24.689 16.5139C23.555 17.5337 22.9657 18.2015 22.189 19.5139C21.3393 20.9497 21.1834 21.9206 20.689 23.5139C20.2118 25.0518 20.0097 25.936 19.689 27.5139C18.2496 34.5938 18.0217 38.9843 19.689 46.0139C20.017 47.3971 20.1452 48.2005 20.689 49.5139C21.2912 50.9684 21.7225 51.7713 22.689 53.0139C23.5366 54.1038 24.0401 54.7481 25.189 55.5139C25.9155 55.9983 27.189 56.5139 27.189 56.5139C27.189 56.5139 29.589 57.3333 31.189 57.5139C32.5472 57.6673 33.3399 57.7336 34.689 57.5139C36.3356 57.2459 37.194 56.7544 38.689 56.0139C40.5816 55.0765 41.5717 54.3724 43.189 53.0139C44.4576 51.9483 46.189 50.0139 46.189 50.0139C46.189 50.0139 48.2291 47.781 49.689 46.5139C51.1636 45.234 53.689 43.5139 53.689 43.5139C53.689 43.5139 55.529 42.3121 56.689 41.5139C58.0727 40.5618 58.7192 39.8271 60.189 39.0139C62.1888 37.9075 65.689 37.0139 65.689 37.0139C65.689 37.0139 69.6272 35.9871 72.189 35.5139C75.0947 34.9773 79.689 34.5139 79.689 34.5139L86.189 34.0139L101.689 33.5139L113.689 33.0139" stroke="#FF6A00" stroke-width="2"/>
</svg>
