<svg width="148" height="160" viewBox="0 0 148 160" fill="none" xmlns="http://www.w3.org/2000/svg">
<path d="M42.0927 158.546C42.0927 158.546 52.937 157.114 59.5927 155.046C64.1982 153.615 66.7418 152.626 71.0927 150.546C75.9874 148.206 78.5743 146.549 83.0927 143.546C88.4271 140.001 91.2589 137.748 96.0927 133.546C101.72 128.654 104.756 125.72 109.593 120.046C113.393 115.588 115.362 112.932 118.593 108.046C121.345 103.884 122.882 101.519 125.093 97.0459C128.049 91.063 131.093 81.0459 131.093 81.0459L134.093 70.0459C134.093 70.0459 135.833 63.3852 136.593 59.0459C137.069 56.3259 137.873 54.7986 138.093 52.0459C138.372 48.5423 139.256 46.142 137.593 43.0459C137.26 42.4257 137.076 42.058 136.593 41.5459C135.811 40.7177 135.114 40.5486 134.093 40.0459C132.431 39.228 131.321 39.2121 129.593 38.5459C128.205 38.0111 127.371 37.805 126.093 37.0459C124.308 35.9864 123.06 35.5136 121.593 34.0459C120.125 32.5782 118.093 29.5459 118.093 29.5459C118.093 29.5459 116.811 27.2424 116.093 25.5459C115.539 24.2367 115.093 22.0459 115.093 22.0459C115.093 22.0459 114.986 20.1667 114.593 19.0459C114.304 18.2219 114.049 17.7902 113.593 17.0459C112.939 15.9803 112.561 15.3369 111.593 14.5459C110.578 13.7172 109.8 13.5542 108.593 13.0459C105.274 11.6487 104.09 11.9023 100.593 11.0459C99.8107 10.8544 98.3784 10.7217 97.5927 10.5459C94.1417 9.77379 88.5927 9.5459 88.5927 9.5459C88.5927 9.5459 79.7553 9.5459 74.0927 9.5459C69.797 9.5459 67.3817 9.30488 63.0927 9.5459C59.3681 9.7552 57.2778 9.96534 53.5927 10.5459C50.6422 11.0107 49.025 11.4772 46.0927 12.0459C42.9722 12.6511 38.0927 13.5459 38.0927 13.5459C38.0927 13.5459 36.341 13.8071 35.5927 14.5459C34.9713 15.1594 34.5927 16.5459 34.5927 16.5459C34.5927 16.5459 34.3204 18.0766 34.0927 19.0459C33.7677 20.4298 33.4832 21.1791 33.0927 22.5459C32.7022 23.9127 32.6903 24.7561 32.0927 26.0459C31.5008 27.3235 30.0927 29.0459 30.0927 29.0459C30.0927 29.0459 28.6448 30.9419 27.5927 32.0459C26.1608 33.5485 25.2067 34.7407 23.5927 36.0459C22.0744 37.2737 21.3735 37.7449 19.5927 38.5459C17.7767 39.3627 16.4846 38.9246 14.5927 39.5459C13.5937 39.874 12.9319 39.9123 12.0927 40.5459C11.652 40.8787 11.3103 41.0383 11.0927 41.5459C10.862 42.0843 10.5927 44.5459 10.5927 44.5459C10.5927 44.5459 10.468 48.503 10.5927 51.0459C10.8127 55.5315 10.56 58.0823 11.0927 62.5459C11.2563 63.9169 11.2688 64.7037 11.5927 66.0459C11.8825 67.2464 12.2517 69.359 12.5927 70.5459C13.0899 72.2761 13.5927 73.5459 13.5927 73.5459C13.5927 73.5459 14.9844 77.3386 16.0927 79.5459C17.0405 81.4334 17.7465 82.4184 19.0927 84.0459C20.3248 85.5354 20.9901 86.4651 22.5927 87.5459C23.6787 88.2783 25.5927 89.0459 25.5927 89.0459C25.5927 89.0459 28.0215 89.4485 29.5927 89.5459C31.1518 89.6426 32.071 89.8988 33.5927 89.5459C34.6171 89.3084 35.2292 89.146 36.0927 88.5459C36.773 88.0732 37.1817 87.7652 37.5927 87.0459C37.8991 86.5098 37.9823 86.1534 38.0927 85.5459C38.2324 84.7774 38.442 84.2445 38.0927 83.5459C37.8457 83.0519 37.0927 82.5459 37.0927 82.5459C37.0927 82.5459 35.8893 82.1625 35.0927 82.0459C33.9335 81.8763 33.1924 81.6419 32.0927 82.0459C31.1763 82.3825 30.3657 82.9495 29.5927 83.5459C28.6029 84.3097 27.5927 85.5459 27.5927 85.5459C27.5927 85.5459 26.6342 86.4189 26.0927 87.0459C25.1724 88.1115 24.5663 88.7199 24.0927 90.0459C23.436 91.8848 23.4584 93.0979 23.5927 95.0459C23.701 96.6164 24.1129 97.5465 24.5927 99.0459C24.9919 100.293 26.0927 102.546 26.0927 102.546C26.0927 102.546 28.1342 105.759 29.5927 108.046C32.0706 111.931 36.5927 117.546 36.5927 117.546L46.5927 129.046L55.0927 137.546L60.5927 142.546L63.5927 145.546C63.5927 145.546 64.2375 146.123 64.5927 146.546C65.0455 147.085 65.4477 147.357 65.5927 148.046C65.6732 148.428 65.6774 148.665 65.5927 149.046C65.498 149.472 65.3413 149.687 65.0927 150.046C64.7784 150.5 64.5156 150.691 64.0927 151.046C63.5536 151.499 63.2557 151.809 62.5927 152.046C61.6733 152.374 60.0927 152.046 60.0927 152.046C60.0927 152.046 58.5306 151.521 57.5927 151.046C56.3368 150.409 54.5927 149.046 54.5927 149.046L45.0927 141.546L38.0927 135.046C38.0927 135.046 33.281 130.379 30.5927 127.046C28.4838 124.431 25.5927 120.046 25.5927 120.046L19.0927 110.046L15.5927 104.046C15.5927 104.046 12.9342 99.271 11.5927 96.0459C10.715 93.9357 10.2416 92.7373 9.59272 90.5459C9.13558 89.002 8.98895 88.1066 8.59272 86.5459C7.64871 82.8276 6.09272 77.0459 6.09272 77.0459C6.09272 77.0459 5.06519 73.4145 4.59272 71.0459C4.05254 68.3378 3.96115 66.7826 3.59272 64.0459C2.93677 59.1733 2.42113 56.4515 2.09272 51.5459C1.67536 45.3115 2.09272 35.5459 2.09272 35.5459C2.09272 35.5459 2.34425 34.9049 2.59277 34.5459C2.90714 34.0918 2.8247 33.8905 3.09277 33.5459C3.52501 32.9902 4.09874 32.7929 4.59272 32.5459C5.29131 32.1966 5.61641 32.5459 6.59272 32.5459C7.56903 32.5459 8.11641 32.5459 9.09272 32.5459C10.069 32.5459 12.0927 32.0459 12.0927 32.0459C12.0927 32.0459 13.6538 31.8773 14.5927 31.5459C15.4162 31.2553 16.5927 30.5459 16.5927 30.5459C17.3738 29.9601 17.8117 29.6317 18.5927 29.0459C18.5927 29.0459 20.1754 27.5779 21.0927 26.5459C22.39 25.0865 23.2043 24.2847 24.0927 22.5459C24.5711 21.6095 25.0927 20.0459 25.0927 20.0459C25.0927 20.0459 25.7969 18.2449 26.0927 17.0459C26.3773 15.8928 26.5927 14.0459 26.5927 14.0459L27.0927 11.0459C27.0927 11.0459 27.1988 9.74805 27.5927 9.0459C27.998 8.32339 28.4305 8.04358 29.0927 7.5459C30.7224 6.3212 32.1332 6.10812 34.0928 5.5459C36.2328 4.9319 39.5927 4.5459 39.5927 4.5459L50.0927 3.0459L57.5927 2.0459C57.5927 2.0459 60.3322 1.71038 62.0927 1.5459C68.3171 0.964387 78.0927 1.0459 78.0927 1.0459C78.0927 1.0459 81.7519 0.942626 84.0927 1.0459C87.6256 1.20176 93.0927 2.0459 93.0927 2.0459C93.0927 2.0459 96.7496 2.65538 99.0927 3.0459C102.607 3.63169 104.621 3.74265 108.093 4.5459C110.262 5.04778 113.593 6.0459 113.593 6.0459L118.093 7.5459L120.093 8.5459C120.093 8.5459 121.172 8.9811 121.593 9.5459C122.073 10.1918 121.913 10.7611 122.093 11.5459C122.622 13.8616 122.485 15.2495 123.093 17.5459C123.677 19.7553 123.983 21.0479 125.093 23.0459C126.174 24.9922 127.085 26.4081 128.593 28.0459C129.341 28.8585 129.685 28.9172 130.593 29.5459C131.311 30.043 131.812 30.1554 132.593 30.5459C133.374 30.9364 133.769 31.2569 134.593 31.5459C135.714 31.939 136.416 31.8817 137.593 32.0459C139.729 32.3441 141.014 31.9696 143.093 32.5459C143.688 32.7109 144.094 32.6822 144.593 33.0459C145.162 33.4606 145.289 33.9108 145.593 34.5459C145.859 35.1029 146.093 36.0459 146.093 36.0459C146.093 39.5606 146.093 41.5312 146.093 45.0459C146.093 45.0459 145.917 52.3668 145.593 57.0459C145.43 59.3915 145.351 60.7089 145.093 63.0459C144.789 65.7906 144.574 67.3268 144.093 70.0459C143.465 73.5912 143.045 75.5737 142.093 79.0459C140.327 85.4814 138.678 88.8937 136.093 95.0459C134.434 98.9939 133.559 101.241 131.593 105.046C128.41 111.206 126.14 114.416 122.093 120.046C119.494 123.661 118.177 125.834 115.093 129.046C113.082 131.14 111.746 132.1 109.593 134.046C105.899 137.384 104.046 139.521 100.093 142.546C96.7379 145.113 94.5835 146.167 91.0927 148.546C88.5414 150.284 87.4726 151.933 84.5927 153.046C84.0167 153.268 83.7026 153.45 83.0927 153.546C82.5141 153.637 82.1713 153.637 81.5927 153.546C80.9828 153.45 80.5293 153.483 80.0927 153.046C79.784 152.737 79.6874 152.472 79.5927 152.046C79.4181 151.26 79.7609 150.779 80.0927 150.046C80.4951 149.156 80.9271 148.76 81.5927 148.046C83.0328 146.501 84.2838 146.136 86.0927 145.046C89.9824 142.701 92.3763 141.734 96.5927 140.046C98.7145 139.197 102.093 138.046 102.093 138.046L105.593 137.046C105.593 137.046 108.876 135.75 111.093 135.546C112.259 135.439 112.921 135.546 114.093 135.546C115.069 135.546 115.616 135.546 116.593 135.546C116.983 135.546 117.593 135.546 117.593 135.546M65.5928 93.0459C64.9815 93.1332 64.0927 92.5459 64.0927 92.5459L62.5927 91.0459L59.5927 88.0459L44.5927 72.5459C44.5927 72.5459 43.7633 71.7605 43.0927 71.5459C42.3488 71.3079 41.8738 71.0459 41.0928 71.0459C40.1165 71.0459 39.5122 71.2175 38.5927 71.5459C37.9297 71.7827 37.6174 72.0765 37.0927 72.5459C36.3651 73.1969 35.9932 73.6555 35.5927 74.5459C35.1843 75.4539 34.6988 76.0559 34.5928 77.0459C34.468 78.2108 34.7028 78.9411 35.0927 80.0459C35.238 80.4576 35.3937 80.6573 35.5927 81.0459C42.2657 94.0746 62.5927 107.046 62.5927 107.046L64.5927 108.046C64.5927 108.046 65.8117 108.546 66.5928 108.546C67.1786 108.546 68.0927 108.046 68.0927 108.046L113.593 62.5459C113.593 62.5459 113.982 61.6534 114.093 61.0459C114.232 60.2774 114.219 59.8167 114.093 59.0459C113.923 58.0081 113.741 57.3738 113.093 56.5459C112.491 55.7772 111.926 55.555 111.093 55.0459C110.348 54.5905 109.093 54.0459 109.093 54.0459C109.093 54.0459 108.205 53.6225 107.593 53.5459C106.605 53.4224 105.093 54.0459 105.093 54.0459L67.0927 92.0459L66.5927 92.5459C66.5927 92.5459 66.025 92.9841 65.5928 93.0459Z" stroke="#FF6A00" stroke-width="2"/>
</svg>
