<svg width="176" height="65" viewBox="0 0 176 65" fill="none" xmlns="http://www.w3.org/2000/svg">
<path d="M27.7666 4.2766C20.5469 5.18304 13.359 9.31766 8.92225 15.0902C6.09163 18.7478 3.80168 24.1069 3.42003 27.9394C3.18149 30.277 3.34051 36.7493 3.65856 38.2123C5.31241 45.4956 9.95591 52.2223 15.9988 56.1502C17.5413 57.152 20.3402 58.5674 21.9622 59.1716C27.2259 61.1594 34.7159 61.239 40.4885 59.4102C44.5754 58.1062 47.8036 56.0707 51.811 52.2859L53.9737 50.2186H109.457L164.925 50.2027L165.37 49.6302L165.799 49.0418L165.131 48.358L164.464 47.6742H110.109C80.2127 47.6742 55.7548 47.6424 55.7548 47.6106C55.7548 47.5788 56.216 46.5929 56.7725 45.432C59.2374 40.3432 60.1915 35.3976 59.7463 30.1021C59.3169 25.0451 57.7744 20.5288 55.1505 16.6169C50.2048 9.31766 42.7943 4.84909 34.5728 4.2607C31.9648 4.08577 29.2614 4.08577 27.7666 4.2766ZM36.7673 5.99406C40.1704 6.63015 44.0188 8.22039 46.929 10.2082C49.4574 11.9416 52.4948 15.0743 54.3077 17.8572C58.7603 24.6635 59.7463 34.4116 56.7566 42.013C56.0251 43.8735 54.9438 46.0363 54.0691 47.388L53.3694 48.4693H82.6775C112.033 48.4693 140.53 48.6602 147.83 48.8987C151.646 49.0259 151.694 49.0259 149.897 49.1372C148.895 49.2167 126.648 49.2963 100.456 49.344L52.8446 49.4076L51.2385 50.9819C49.2666 52.8902 48.4874 53.5422 46.4837 54.8939C43.8439 56.6909 41.061 57.9154 37.6579 58.7741C36.0199 59.1875 35.7973 59.2034 31.9807 59.2034C28.2755 59.1875 27.862 59.1557 25.9696 58.7582C23.3775 58.2016 21.9463 57.7245 19.5769 56.5796C16.5077 55.1006 13.852 53.081 11.4984 50.4571C8.6042 47.213 6.82314 44.0008 5.58275 39.8025C4.85124 37.3059 4.5491 35 4.5491 31.7559C4.5491 28.7027 4.93075 26.2855 5.83719 23.5821C7.9363 17.3643 12.8501 11.7666 19.0203 8.57025C21.8668 7.09132 23.6956 6.50294 27.3372 5.83504C29.5476 5.43748 34.207 5.51699 36.7673 5.99406Z" fill="black"/>
<path d="M28.5617 6.90038C22.2325 7.6955 16.4123 10.717 12.1822 15.3764C9.33571 18.5091 7.77727 21.3556 6.50508 25.6493C6.01211 27.3509 5.9326 27.8756 5.80538 30.42C5.63045 33.8072 5.78948 36.0654 6.37786 38.3553C8.92225 48.1353 16.8257 55.673 26.5421 57.5495C28.3868 57.8993 33.2688 57.9948 35.5587 57.7085C45.0525 56.5158 53.7988 48.8032 56.3591 39.3731C57.8062 34.0776 57.4722 27.7484 55.4844 22.7074C53.6398 18.0321 49.4256 13.15 44.8775 10.3989C40.886 7.99764 37.149 6.97989 31.9012 6.88448C30.3746 6.85267 28.8638 6.86857 28.5617 6.90038ZM33.4119 21.5306C34.6364 21.6737 35.8927 21.8645 36.1948 21.9758C36.7037 22.1349 36.7514 22.1985 36.7514 22.7869V23.423L35.6383 23.4548C34.207 23.5184 30.5336 23.9636 30.0565 24.1545C29.7703 24.2499 29.6749 24.4089 29.6749 24.7906C29.6749 25.2835 29.6908 25.2835 30.2792 25.1881C32.9826 24.7111 36.6401 24.6792 40.886 25.0927C43.176 25.3153 43.5894 25.3949 43.9393 25.7288C44.1142 25.8878 44.6708 27.001 45.1797 28.1937C46.0861 30.3405 46.3883 30.7381 47.247 31.0243C47.3424 31.0561 47.3901 31.5332 47.3742 32.1216L47.3265 33.1711L48.058 33.4256C48.4715 33.5687 49.1076 33.8549 49.4892 34.0776C50.4116 34.6182 50.5706 35.143 50.4275 37.3057C50.3003 39.5162 50.2207 39.8501 49.855 40.0569C49.5687 40.2 45.6409 40.3908 39.105 40.5816L36.3857 40.6452L35.9881 40.0728C35.7814 39.7547 35.2725 39.1027 34.8431 38.6415L34.0957 37.8146H32.9189C32.1715 37.8146 31.5513 37.91 31.2651 38.0532C30.6608 38.3712 30.0406 39.1822 29.659 40.1841C29.1819 41.4404 29.5794 41.9174 30.2314 40.852C31.7581 38.3394 33.1257 38.3076 34.9226 40.7725L35.5428 41.5994L39.105 41.7107C41.0769 41.7743 42.7466 41.8697 42.8102 41.9333C42.8897 41.981 43.0647 42.2355 43.1919 42.5058C43.5099 43.1101 44.3846 43.6985 44.973 43.6985C45.6409 43.6985 46.3565 43.126 46.7063 42.3309C46.9926 41.7107 47.088 41.6471 47.6923 41.5517C48.058 41.4881 48.7577 41.4722 49.2348 41.504C50.0935 41.5517 50.1094 41.5676 50.1094 42.0288C50.1094 42.4581 50.0617 42.5058 49.5528 42.5535C48.5351 42.633 48.2966 42.7444 48.0262 43.2691C47.3901 44.5095 46.0702 45.4478 44.9253 45.4478C44.0665 45.4478 42.8897 44.8117 42.3014 44.0166C42.0469 43.6826 41.6812 43.3168 41.4744 43.2373C41.0292 43.0306 39.5025 43.0147 37.4829 43.2214C35.9404 43.3646 35.3838 43.6349 35.1612 44.3664C35.0181 44.7958 33.7936 45.4478 33.1098 45.4478C32.3624 45.4478 31.3923 44.9548 30.9311 44.3187C29.8657 42.9193 29.9611 42.967 27.6871 42.8557C26.5421 42.7921 24.3635 42.7126 22.8368 42.6489L20.0539 42.5694L19.6564 43.4123C19.1316 44.5413 18.4637 44.9707 17.2869 44.9707C15.9511 44.9707 14.7266 44.0961 14.4245 42.9352C14.3132 42.5376 14.2336 42.5058 13.2159 42.3945C11.7688 42.2514 11.6893 42.1401 11.737 40.2C11.7847 38.737 11.8006 38.6893 12.1663 38.6415C12.6275 38.562 12.8183 38.8324 12.8183 39.5957C12.8183 40.4862 13.0728 40.9951 13.4862 40.9951C13.9792 40.9951 14.1064 40.8679 14.4881 40.1205C14.9493 39.2299 15.6967 38.7688 16.7144 38.7688C17.7004 38.7688 18.3524 39.1504 19.1475 40.2C19.4496 40.5975 19.7677 40.9633 19.879 41.011C20.0698 41.1223 24.7928 41.4722 26.1445 41.4722C26.8919 41.4722 26.9715 41.4404 27.0669 41.0587C27.1305 40.7884 27.0987 40.5975 26.9556 40.5021C26.8283 40.4226 25.8265 40.359 24.7133 40.359H22.6778V39.5639V38.7688H25.3653H28.0369L28.1482 38.0373C28.1959 37.6238 28.2436 33.6482 28.2436 29.1796V21.0694L29.7226 21.1807C30.5177 21.2443 32.1874 21.4034 33.4119 21.5306ZM26.4944 21.6896C26.7488 22.3416 26.7011 37.6556 26.4626 37.6556C19.1952 37.5125 12.4049 37.3216 12.1027 37.2421L11.7052 37.1467V30.7222C11.7052 27.1918 11.7211 24.2976 11.7529 24.2976C11.7688 24.2817 15.0129 23.6138 18.9408 22.8028C22.8845 21.9758 26.1445 21.3079 26.224 21.292C26.2877 21.2761 26.4149 21.467 26.4944 21.6896Z" fill="black"/>
<path d="M32.5851 26.1586C32.4738 26.1904 32.3784 26.3653 32.3784 26.5402C32.3784 26.8901 34.0164 31.0247 34.3821 31.5654L34.6048 31.9312H40.1865H45.7682L45.6728 31.5336C45.5297 30.9452 44.1621 27.7965 43.7963 27.1922C43.6214 26.9219 43.3352 26.6516 43.1443 26.6039C41.9039 26.3176 33.094 25.936 32.5851 26.1586Z" fill="black"/>
<path d="M30.6608 27.6691C30.1678 28.671 29.6748 30.7542 29.6748 31.7401V32.6147L31.44 32.5193C32.41 32.4716 33.2528 32.3921 33.3005 32.3444C33.5232 32.1218 31.5195 27.1602 31.1696 27.0489C31.0583 27.0171 30.8357 27.2874 30.6608 27.6691Z" fill="black"/>
<path d="M38.5485 35.1113C37.5307 35.3021 37.3081 35.6361 37.3081 36.9241C37.3081 38.244 37.4035 38.4508 38.0396 38.4985L38.5008 38.5303L38.5485 37.2104L38.5962 35.9064H39.3754H40.1705V37.274V38.6416L44.3211 38.578C49.2508 38.5144 48.9168 38.6734 48.9168 36.4312V34.9522L44.0348 34.9682C41.3314 34.9841 38.8665 35.0477 38.5485 35.1113ZM47.8037 36.5743C47.8037 37.5125 47.8196 37.5125 44.4483 37.4648L41.3632 37.4171L41.3155 36.7333L41.2678 36.0654H44.5278H47.8037V36.5743Z" fill="black"/>
<path d="M16.1578 40.6613C15.0765 41.7426 15.5217 43.1738 17.0325 43.476C18.4478 43.7463 18.9726 41.2814 17.6686 40.5022C17.0166 40.0888 16.6826 40.1206 16.1578 40.6613Z" fill="black"/>
<path d="M31.8058 40.9316C31.3765 41.3768 31.2651 41.6313 31.2651 42.1401C31.2651 42.6808 31.3765 42.8875 31.9012 43.4123C32.3942 43.9053 32.6009 44.0166 32.8872 43.9371C33.9526 43.635 34.4933 42.6808 34.1276 41.7903C33.889 41.2337 32.9667 40.3591 32.585 40.3591C32.4578 40.3591 32.0921 40.6135 31.8058 40.9316Z" fill="black"/>
<path d="M62.5611 15.3447C62.2908 15.4083 62.2749 15.9649 62.2749 24.2501V33.0918L67.5704 32.9964C70.7191 32.9487 73.0885 32.8374 73.4384 32.7419C74.154 32.5193 74.7742 31.8196 74.9968 30.945C75.0922 30.5951 75.1876 29.1798 75.2035 27.8122C75.2194 25.5541 75.1876 25.2678 74.8696 24.5522C74.4561 23.6299 74.4402 23.455 74.7901 22.9302C75.3308 22.0873 75.1876 17.6824 74.5674 16.6169C74.0586 15.7423 73.4384 15.5674 70.3692 15.3924C67.5704 15.2334 63.07 15.2016 62.5611 15.3447ZM70.3851 20.7993V21.9283L68.6836 21.8806L66.9661 21.8329V20.8788C66.9661 19.9564 66.982 19.9246 67.4432 19.8292C67.7135 19.7656 68.4768 19.7179 69.1606 19.702L70.3851 19.6861V20.7993ZM70.7032 27.4783V28.7504H68.7949H66.8866V27.4783V26.2061H68.7949H70.7032V27.4783Z" fill="black"/>
<path d="M81.7552 15.3767C80.0378 15.5199 79.0836 15.9492 78.8133 16.7285C78.4475 17.778 78.3203 20.4337 78.368 25.5861C78.4157 30.5317 78.4316 30.9452 78.7338 31.5177C79.2903 32.6149 79.6084 32.7422 82.1846 32.9171C83.425 32.9966 85.6036 33.0443 87.0189 33.0125C89.9608 32.933 90.4379 32.774 90.9786 31.6926C91.2807 31.0883 91.2966 30.6748 91.3443 25.0454C91.4239 17.1101 91.2966 16.3468 89.8654 15.6471C89.3247 15.3767 88.8477 15.329 86.2079 15.2972C84.554 15.2813 82.5344 15.3131 81.7552 15.3767ZM86.9235 21.2447C86.9235 22.0239 86.9712 23.964 87.0348 25.5384L87.1302 28.4326H84.9675H82.7889V24.4888C82.7889 22.3261 82.8366 20.4019 82.8843 20.1952C82.9797 19.8612 83.0433 19.8453 84.9516 19.8453H86.9235V21.2447Z" fill="black"/>
<path d="M94.7158 24.1386V33.0439H97.0217H99.3275V29.609V26.1582L100.791 26.2695C101.586 26.3172 102.444 26.3649 102.699 26.3649H103.144V29.7044V33.0439H105.45H107.756V24.1386V15.2333H105.45H103.144V18.2547V21.2762H101.236H99.3275V18.2547V15.2333H97.0217H94.7158V24.1386Z" fill="black"/>
<path d="M111.572 15.3446C111.445 15.3923 111.286 15.5195 111.222 15.6149C111.159 15.7103 111.095 19.67 111.095 24.4089V33.0439H113.369H115.659L115.755 30.1656C115.818 28.5754 115.898 27.2237 115.961 27.176C116.104 27.0328 116.534 27.6371 118.267 30.3882L119.778 32.8054L122.434 32.8531C123.897 32.869 125.089 32.8531 125.089 32.8054C125.089 32.7736 124.31 31.4537 123.372 29.8953L121.654 27.0646L122.529 26.5876C123.928 25.8243 124.04 25.5221 124.103 22.3734C124.151 20.9104 124.087 19.1453 123.992 18.4297C123.658 15.9012 123.213 15.5672 119.873 15.3764C117.202 15.2333 111.922 15.2174 111.572 15.3446ZM119.364 21.3398V22.6597L118.633 22.771C118.219 22.8187 117.393 22.8664 116.804 22.8664H115.707V21.4352V20.004H117.536H119.364V21.3398Z" fill="black"/>
<path d="M130.814 15.3763C127.935 15.5512 127.586 15.9647 127.299 19.5268C127.077 22.2302 127.315 31.0243 127.633 31.883C127.745 32.201 128.015 32.4873 128.397 32.6781C128.921 32.9326 129.446 32.9644 133.676 32.9644C139.131 32.9644 139.353 32.9166 139.878 31.7399C140.355 30.6585 140.562 27.4144 140.467 22.6437C140.355 16.8234 140.133 15.9965 138.67 15.5512C137.922 15.3286 133.167 15.2173 130.814 15.3763ZM135.807 20.0993C135.855 20.2424 135.903 22.1666 135.903 24.393V28.4322H133.835H131.768V24.1385V19.8449H133.74C135.394 19.8449 135.728 19.8926 135.807 20.0993Z" fill="black"/>
<path d="M143.95 16.2192C143.838 17.3801 143.6 21.7373 143.377 26.842C143.298 28.8139 143.17 31.0084 143.123 31.724L143.027 33.0439H145.19H147.353V32.5987C147.369 31.8354 147.973 24.568 148.037 24.5044C148.084 24.4726 149.07 26.3649 150.231 28.7026C151.551 31.3265 152.457 32.9644 152.585 32.9644C152.728 32.9644 153.253 32.1375 153.841 30.9766C156.29 26.2218 157.117 24.7588 157.212 24.9655C157.276 25.0768 157.451 26.8579 157.61 28.9093C157.769 30.9607 157.944 32.6941 157.991 32.7577C158.039 32.8213 159.041 32.9167 160.202 32.9803C161.967 33.0758 162.301 33.0598 162.222 32.869C162.158 32.6623 161.713 25.7766 161.347 18.9703C161.251 17.2211 161.14 15.6626 161.092 15.5036C161.013 15.281 160.806 15.2333 159.693 15.2333C158.962 15.2333 158.055 15.281 157.658 15.3287L156.958 15.4241L155.224 19.0339C154.286 21.0058 153.3 22.9777 153.062 23.4071L152.616 24.1863L151.153 21.1808C150.358 19.5269 149.388 17.5073 149.007 16.6963L148.323 15.2333H146.176H144.045L143.95 16.2192Z" fill="black"/>
<path d="M84.077 35.2071C84.2837 35.4297 84.6813 35.7477 84.9675 35.9227L85.4764 36.2407L86.1761 35.7796C86.5577 35.5092 86.9553 35.1912 87.0666 35.048C87.2574 34.8254 87.2256 34.7936 86.9394 34.7936C86.7486 34.7936 86.3192 34.9367 86.0012 35.0958C85.4128 35.3979 85.3969 35.3979 85.0152 35.0958C84.7926 34.9367 84.4109 34.7936 84.1565 34.7936H83.6953L84.077 35.2071Z" fill="black"/>
<path d="M136.65 35.1911C136.316 35.4296 136.062 35.7318 136.062 35.9067C136.062 36.3202 136.11 36.3043 136.857 35.8113C137.223 35.5728 137.493 35.2547 137.493 35.0957C137.493 34.6981 137.366 34.714 136.65 35.1911Z" fill="black"/>
<path d="M160.186 35.1911C159.852 35.4296 159.597 35.7318 159.597 35.9067C159.597 36.3202 159.645 36.3043 160.392 35.8113C160.758 35.5728 161.028 35.2547 161.028 35.0957C161.028 34.6981 160.901 34.714 160.186 35.1911Z" fill="black"/>
<path d="M64.5804 37.4174C63.5945 37.6718 62.7357 38.5147 62.7198 39.2462C62.7039 39.8982 63.2287 40.3911 65.0575 41.4566C66.5205 42.2994 66.7431 42.7447 66.0275 43.4603C65.7095 43.7784 65.471 43.8579 64.7871 43.8579C64.326 43.8579 63.6899 43.7943 63.4036 43.6988C62.7675 43.5239 62.3064 43.7466 62.5926 44.1123C62.8153 44.3667 64.1033 44.812 64.644 44.812C65.9162 44.812 67.0771 44.0646 67.3951 43.0309C67.5542 42.4903 67.5383 42.3312 67.2838 41.8542C67.0612 41.4248 66.6795 41.1545 65.5028 40.582C64.3419 40.0095 64.0079 39.771 63.9125 39.4529C63.8012 38.9599 63.992 38.6101 64.5168 38.3397C64.9939 38.0853 66.0116 38.0694 66.441 38.3079C66.7272 38.4511 66.8227 38.4352 66.9976 38.1966C67.1725 37.9581 67.1725 37.8786 66.9817 37.6718C66.6318 37.3379 65.4391 37.2107 64.5804 37.4174Z" fill="black"/>
<path d="M72.4522 37.3218C72.1978 37.3854 72.0547 37.5445 72.0547 37.7353C72.0547 38.0215 72.1819 38.0533 73.1042 38.101L74.1538 38.1488L74.2333 41.3133C74.2651 43.0626 74.3446 44.5256 74.3923 44.5892C74.4559 44.6369 74.6309 44.6369 74.8058 44.5892C75.092 44.4938 75.1238 44.2712 75.2352 41.3928L75.3465 38.3078L76.0144 38.2283C76.3642 38.1806 76.8413 38.1169 77.0639 38.101C77.3343 38.0692 77.4774 37.942 77.5092 37.7194C77.5569 37.4331 77.4456 37.3695 76.9526 37.29C76.1575 37.1469 72.9611 37.1787 72.4522 37.3218Z" fill="black"/>
<path d="M109.028 37.4493C107.74 37.8468 106.595 39.0236 106.309 40.264C105.529 43.7943 109.982 46.1161 113.353 43.9374C114.276 43.3172 114.816 42.2677 114.816 41.0114C114.816 39.8346 114.594 39.278 113.783 38.4829C112.638 37.3698 110.698 36.9404 109.028 37.4493ZM112.463 38.5306C114.721 39.8346 114.18 43.031 111.604 43.7625C110.348 44.1124 109.871 44.0806 108.932 43.6194C107.851 43.0787 107.279 42.1882 107.279 40.9955C107.279 39.93 107.644 39.278 108.551 38.6737C109.728 37.8945 111.254 37.8309 112.463 38.5306Z" fill="black"/>
<path d="M145.778 39.9777C145.794 43.4921 145.905 44.5576 146.255 44.6212C146.605 44.6848 146.716 44.2236 146.716 42.7447C146.716 42.0927 146.764 41.075 146.812 40.4866L146.923 39.4211L149.801 42.1245L152.68 44.812L152.727 41.4248C152.775 37.8627 152.727 37.3379 152.378 37.3379C152.028 37.3379 151.964 37.7195 151.853 40.3911L151.757 42.9355L149.197 40.4071C147.782 39.0235 146.446 37.7195 146.207 37.4969L145.762 37.1312L145.778 39.9777Z" fill="black"/>
<path d="M83.2183 38.149C83.1546 38.626 83.1069 40.2322 83.1069 41.727V44.4622L84.9198 44.5735C86.8122 44.6849 87.4006 44.6212 87.4006 44.2714C87.4006 44.0488 86.3033 43.8579 84.9675 43.8579H84.2042L84.2519 42.6175L84.2996 41.3931L85.0947 41.3613C86.5578 41.2817 87.2416 41.1386 87.2416 40.916C87.2416 40.757 86.8281 40.6775 85.7308 40.5979L84.2201 40.4866V39.3098V38.1331H85.7308C86.9553 38.1331 87.2734 38.0854 87.3529 37.8945C87.4006 37.7514 87.4006 37.6083 87.3529 37.5606C87.3052 37.497 86.3669 37.4334 85.2856 37.3857L83.3137 37.2902L83.2183 38.149Z" fill="black"/>
<path d="M120.318 37.4807C120.318 37.6716 123.419 43.8417 123.706 44.2393C123.912 44.5255 123.976 44.4778 124.564 43.4441C125.296 42.2037 127.633 37.6239 127.633 37.4489C127.633 37.3853 127.459 37.3376 127.252 37.3376C126.807 37.3376 126.473 37.8306 124.898 40.8202C124.278 41.9811 123.896 42.5695 123.785 42.4582C123.706 42.3787 123.292 41.5517 122.863 40.6135C121.972 38.6575 121.066 37.3376 120.621 37.3376C120.461 37.3376 120.318 37.4012 120.318 37.4807Z" fill="black"/>
<path d="M134.328 40.9158C133.327 42.8877 132.563 44.5415 132.611 44.6051C132.659 44.6528 132.897 44.6369 133.12 44.5892C133.39 44.5256 133.629 44.2553 133.867 43.7782L134.217 43.0626H136.094H137.954L138.225 43.5715C138.606 44.3507 138.924 44.6528 139.354 44.6528C139.544 44.6528 139.719 44.6051 139.719 44.5415C139.719 44.4779 139.115 43.2375 138.399 41.7904C137.668 40.3433 136.905 38.753 136.698 38.2442C136.491 37.7512 136.284 37.3377 136.221 37.3377C136.173 37.3377 135.314 38.9439 134.328 40.9158ZM136.507 40.0729C136.682 40.3592 136.984 40.9794 137.159 41.4246L137.493 42.2675H136.141C135.299 42.2675 134.79 42.2039 134.79 42.0925C134.79 41.8222 135.935 39.5641 136.062 39.5641C136.141 39.5641 136.332 39.8026 136.507 40.0729Z" fill="black"/>
<path d="M93.3796 38.2282C93.2524 39.1823 93.2524 43.1102 93.3955 43.9053C93.491 44.5573 93.8567 44.8436 94.0953 44.4778C94.1748 44.3506 94.2384 43.5873 94.2384 42.7762V41.2973L96.5919 41.345L98.9296 41.3927L99.0886 42.983C99.2317 44.4142 99.2794 44.5732 99.5657 44.5732C99.995 44.5732 100.09 43.7781 100.106 40.2319L100.122 37.4967H99.5657H99.0091V39.0074V40.534L96.6714 40.4863L94.3179 40.4386L94.2702 39.3254C94.2225 37.8306 94.1271 37.4967 93.7772 37.4967C93.5546 37.4967 93.4592 37.6557 93.3796 38.2282Z" fill="black"/>
<path d="M159.279 41.0748V44.6528H159.836H160.392V41.0748V37.4968H159.836H159.279V41.0748Z" fill="black"/>
<path d="M164.606 46.1636C165.052 46.4816 166.165 47.2608 167.103 47.881C168.041 48.5171 168.805 49.0737 168.82 49.1214C168.82 49.185 168.009 49.7416 167.039 50.3459C166.053 50.9661 164.924 51.6976 164.527 51.9679C163.875 52.4132 163.859 52.445 164.288 52.3496C165.942 51.9838 172.701 49.4395 172.685 49.185C172.669 48.8988 165.497 45.8773 164.352 45.6706C163.811 45.5752 163.811 45.5752 164.606 46.1636Z" fill="black"/>
</svg>
