<svg width="409" height="440" viewBox="0 0 409 440" fill="none" xmlns="http://www.w3.org/2000/svg">
<path d="M322.691 103.611C332.924 121.9 353.423 147.581 353.423 147.581C353.423 147.581 358.545 141.42 361.874 137.552C367.098 131.483 374.167 121.353 374.167 121.353C374.167 121.353 381.095 111.714 384.923 105.154C390.146 96.2027 392.205 90.7005 396.448 81.2411C399.263 74.9655 401.826 65.042 401.826 65.042C401.826 65.042 404.146 56.055 403.363 50.3856C402.32 42.8368 400.146 37.7559 396.448 31.1006C391.895 22.9072 388.236 19.1058 380.313 14.1303C374.597 10.5403 364.947 7.9592 364.947 7.9592C364.947 7.9592 351.098 5.801 342.667 7.9592C336.94 9.42512 333.844 10.9772 328.837 14.1303C321.825 18.5462 318.151 21.9322 313.471 28.7867C309.216 35.0184 307.286 39.1248 305.788 46.5286C304.354 53.6137 304.422 57.9433 305.788 65.042C306.562 69.065 307.513 71.2028 308.861 75.07C312.941 86.7688 316.644 92.8048 322.691 103.611Z" stroke="#404040" stroke-width="3.49326"/>
<path d="M23.799 378.44C34.0322 396.729 54.5312 422.409 54.5312 422.409C54.5312 422.409 59.6532 416.249 62.9825 412.381C68.2064 406.312 75.2754 396.182 75.2754 396.182C75.2754 396.182 82.2039 386.543 86.0317 379.983C91.2548 371.031 93.3133 365.529 97.5563 356.07C100.371 349.794 102.934 339.871 102.934 339.871C102.934 339.871 105.254 330.884 104.471 325.214C103.428 317.665 101.254 312.585 97.5563 305.929C93.0035 297.736 89.3444 293.934 81.4219 288.959C75.7054 285.369 66.0558 282.788 66.0558 282.788C66.0558 282.788 52.2064 280.63 43.7749 282.788C38.048 284.254 34.9521 285.806 29.9454 288.959C22.9337 293.375 19.2591 296.761 14.5793 303.615C10.3247 309.847 8.39484 313.953 6.89626 321.357C5.4622 328.442 5.53056 332.772 6.89626 339.871C7.67023 343.894 8.62094 346.031 9.96948 349.899C14.0489 361.597 17.7523 367.633 23.799 378.44Z" stroke="#404040" stroke-width="3.49326"/>
<path d="M270.134 153.946C269.771 154.361 275.003 154.331 275.914 154.331C277.456 154.331 278.997 154.331 280.539 154.331" stroke="#404040" stroke-width="4.65769" stroke-linecap="round" stroke-linejoin="round"/>
<path d="M305.314 158.443C304.884 158.788 310.041 159.667 310.939 159.826C312.457 160.093 313.975 160.361 315.493 160.629" stroke="#404040" stroke-width="4.65769" stroke-linecap="round" stroke-linejoin="round"/>
<path d="M338.385 155.237C338.1 155.708 343.247 154.771 344.145 154.612C345.663 154.345 347.181 154.077 348.699 153.809" stroke="#404040" stroke-width="4.65769" stroke-linecap="round" stroke-linejoin="round"/>
<path d="M237.785 161.555C237.631 162.084 242.36 159.847 243.186 159.461C244.583 158.81 245.98 158.159 247.377 157.507" stroke="#404040" stroke-width="4.65769" stroke-linecap="round" stroke-linejoin="round"/>
<path d="M226.13 192.82C226.511 193.218 226.938 188.004 227.017 187.096C227.151 185.56 227.286 184.025 227.42 182.489" stroke="#404040" stroke-width="4.65769" stroke-linecap="round" stroke-linejoin="round"/>
<path d="M208.414 220.141C208.402 220.692 212.391 217.307 213.089 216.721C214.27 215.73 215.451 214.739 216.632 213.748" stroke="#404040" stroke-width="4.65769" stroke-linecap="round" stroke-linejoin="round"/>
<path d="M173.91 221.639C173.481 221.984 178.638 222.864 179.536 223.022C181.054 223.29 182.572 223.557 184.09 223.825" stroke="#404040" stroke-width="4.65769" stroke-linecap="round" stroke-linejoin="round"/>
<path d="M141.156 211.236C140.727 211.581 145.884 212.46 146.782 212.619C148.3 212.886 149.818 213.154 151.336 213.422" stroke="#404040" stroke-width="4.65769" stroke-linecap="round" stroke-linejoin="round"/>
<path d="M118.481 217.764C118.174 217.306 116.849 222.367 116.613 223.248C116.214 224.737 115.815 226.226 115.416 227.714" stroke="#404040" stroke-width="4.65769" stroke-linecap="round" stroke-linejoin="round"/>
<path d="M117.461 249.524C117.016 249.198 117.501 254.407 117.581 255.316C117.715 256.851 117.85 258.387 117.984 259.922" stroke="#404040" stroke-width="4.65769" stroke-linecap="round" stroke-linejoin="round"/>
<path d="M127.353 287.411C126.859 287.168 128.241 292.214 128.477 293.094C128.876 294.583 129.275 296.072 129.674 297.561" stroke="#404040" stroke-width="4.65769" stroke-linecap="round" stroke-linejoin="round"/>
<path d="M139.178 317.784C138.63 317.725 141.655 321.993 142.178 322.74C143.062 324.003 143.946 325.265 144.83 326.528" stroke="#404040" stroke-width="4.65769" stroke-linecap="round" stroke-linejoin="round"/>
<path d="M162.421 344.056C161.916 344.279 166.67 346.463 167.496 346.848C168.893 347.499 170.29 348.151 171.687 348.802" stroke="#404040" stroke-width="4.65769" stroke-linecap="round" stroke-linejoin="round"/>
<path d="M193.634 357.929C193.13 358.151 197.884 360.335 198.71 360.721C200.107 361.372 201.504 362.023 202.901 362.675" stroke="#404040" stroke-width="4.65769" stroke-linecap="round" stroke-linejoin="round"/>
<path d="M219.963 380.541C219.518 380.216 220.003 385.425 220.082 386.333C220.217 387.869 220.351 389.404 220.485 390.94" stroke="#404040" stroke-width="4.65769" stroke-linecap="round" stroke-linejoin="round"/>
<path d="M207.058 408.412C207.257 407.898 202.351 409.715 201.494 410.027C200.046 410.554 198.598 411.082 197.149 411.609" stroke="#404040" stroke-width="4.65769" stroke-linecap="round" stroke-linejoin="round"/>
<path d="M172.624 419.45C172.987 419.035 167.756 419.064 166.844 419.064C165.303 419.064 163.761 419.064 162.22 419.064" stroke="#404040" stroke-width="4.65769" stroke-linecap="round" stroke-linejoin="round"/>
<path d="M137.943 422.146C138.306 421.731 133.075 421.76 132.163 421.76C130.622 421.76 129.081 421.76 127.539 421.76" stroke="#404040" stroke-width="4.65769" stroke-linecap="round" stroke-linejoin="round"/>
<path d="M104.033 425.229C104.396 424.814 99.1647 424.844 98.2531 424.844C96.7117 424.844 95.1703 424.844 93.629 424.844" stroke="#404040" stroke-width="4.65769" stroke-linecap="round" stroke-linejoin="round"/>
<path d="M68.5816 426C68.9446 425.585 63.7131 425.614 62.8014 425.614C61.2601 425.614 59.7187 425.614 58.1773 425.614" stroke="#404040" stroke-width="4.65769" stroke-linecap="round" stroke-linejoin="round"/>
</svg>
