<svg width="332" height="331" viewBox="0 0 332 331" fill="none" xmlns="http://www.w3.org/2000/svg">
<circle cx="166" cy="165.5" r="165.5" fill="#E4E4E4"/>
<path d="M27.5 226.5H66.5C66.5 226.5 66.2634 229.681 67 231.5C67.5285 232.805 68.166 233.866 69 235C69.7406 236.007 70.0569 236.179 71 237C72.3174 238.147 73.3593 238.401 75 239C76.5126 239.552 77.4043 239.784 79 240C80.935 240.261 82.1057 240.474 84 240C85.6943 239.576 86.5876 239.527 88 238.5C88 238.5 90.4761 236.572 91 235C91.3705 233.889 92.0193 232.578 91 232C90.0852 231.482 88 232.5 88 232.5C88 232.5 86.5388 233.337 85.5 233.5C84.1359 233.714 83.3106 233.434 82 233C80.2514 232.421 79.2502 231.853 78 230.5C76.9316 229.344 76 227 76 227L95 228H106.5C106.5 228 112.124 228.979 116 228.5C118.775 228.157 120.592 227.92 123 226.5C123.841 226.004 125.5 225 125.5 225H129.5H134L135 228C135 228 136.132 230.484 137 232C138.049 233.833 138.541 234.973 140 236.5C141.647 238.223 142.307 239.567 144.5 240.5C145.808 241.056 146.606 241.22 148 241.5C151.446 242.193 154.258 242.357 157.5 241C159.807 240.034 161.327 238.859 163 237C164.703 235.108 165.105 233.883 166 231.5C166.7 229.636 166.75 228.475 167 226.5C167.442 223.013 167.588 220.965 167 217.5C166.73 215.913 166.614 214.989 166 213.5C165.298 211.797 164.643 210.945 163.5 209.5C162.301 207.984 161.649 207.008 160 206C158.419 205.034 157.823 204.331 156 204C153.695 203.581 151.74 203.311 149.5 204C148.248 204.385 147.062 204.243 145.5 206C143.938 207.757 146.562 204.743 145 206.5C143.438 208.257 140 215 140 215L139 217.5C139 217.5 138.333 215.371 138.5 214C138.68 212.524 140 210.5 140 210.5C140 210.5 141.849 207.219 143.5 205.5C145.042 203.895 146.034 203.044 148 202C149.474 201.218 150.375 200.879 152 200.5C154.852 199.835 156.695 199.658 159.5 200.5C161.173 201.002 162.075 201.491 163.5 202.5C165.077 203.617 167 206 167 206C168.172 208.148 168.828 209.352 170 211.5C171.172 213.648 170.713 214.836 171 217C171.36 219.717 171.5 224 171.5 224L228 223L228.5 226.5C228.5 226.5 228.967 228.386 229.5 229.5C230.342 231.262 232.5 233.5 232.5 233.5C232.5 233.5 235.267 236.167 237.5 237C240.61 238.16 242.882 238.14 246 237C248.494 236.088 249.766 235.012 251.5 233C253.097 231.147 254.5 227.5 254.5 227.5C254.5 227.5 255.308 224.482 255.5 222.5C255.802 219.384 255 214.5 255 214.5C255 214.5 254.745 211.639 254 210C253.305 208.471 252.688 207.688 251.5 206.5C250.312 205.312 248 204 248 204C248 204 247.4 203.674 247 203.5C243.957 202.174 238.5 203.5 238.5 203.5C238.5 203.5 236.559 203.865 235.5 204.5C233.956 205.426 233.493 206.498 232.5 208C231.537 209.457 230.5 212 230.5 212L228.5 219.82C228.5 219.82 228.841 213.105 230 209C230.621 206.801 230.705 205.383 232 203.5C232.939 202.135 233.68 201.501 235 200.5C236.254 199.549 237.036 199.08 238.5 198.5C239.074 198.273 239.404 198.162 240 198C243.016 197.181 245.041 197.194 248 198.2C249.455 198.695 250.677 199.218 252 200C253.212 200.717 253.471 201.039 254.5 202C255.414 202.853 256.5 204.5 256.5 204.5C256.5 204.5 257.92 207.167 258.5 209C259.159 211.081 259.5 214.5 259.5 214.5V220H283.5L284.5 209L285.245 204.5L286 199L286.5 195H170C170 195 168.226 194.377 167.5 193.5C166.713 192.548 166.5 190.5 166.5 190.5C166.5 190.5 166.548 187.384 166 185.5C165.707 184.49 165 183 165 183C165 183 164.269 181.808 163.5 181.5C162.775 181.21 162.265 181.344 161.5 181.5C159.196 181.969 157 186 157 186L149 195.5C149 195.5 144.338 201.041 140.5 203.5C138.294 204.913 136.869 205.381 134.5 206.5C131.417 207.957 129.844 209.332 126.5 210C123.436 210.612 118.5 210 118.5 210L119.5 206.5C119.5 206.5 120.247 204.399 120.5 203C120.951 200.502 121.43 198.862 120.5 196.5C120.083 195.441 119 194 119 194C119 194 117.082 191.859 115.5 191C111.897 189.043 105 191 105 191C105 191 103.426 191.502 102.5 192C100.672 192.984 99.4527 194.017 98 195.5C96.7401 196.786 95.993 197.498 95 199C94.0367 200.457 93.9595 201.315 93.5 203C92.8835 205.261 93.5 209 93.5 209H109.5C109.5 209 110.976 209.301 111.5 210C111.87 210.494 112 211.5 112 211.5C112 211.5 111.718 211.83 111.5 212L110.5 212.5H94.5H86H76.5H72L49.5 212V223L42.5 222.5L40.5 221.5C40.5 221.5 38.144 214.942 40 211.5C40.3342 210.88 41 210 41 210L42 209C42 209 42.1102 207.47 42 206.5C41.8395 205.088 41.3244 204.384 41 203C40.2372 199.746 40 194.5 40 194.5C40 194.5 40.2702 194.153 40.5 194C41.1499 193.567 42.5 194 42.5 194C42.5 194 44.4783 195.368 45.5 196.5C46.1541 197.225 46.5682 197.624 47 198.5C48.0364 200.601 45.5941 202.625 47 204.5C47.3314 204.942 47.5374 205.198 48 205.5C48.834 206.044 50.5 206 50.5 206H56L66 206.5L74.5 207C74.5 207 79.2748 207.215 82 207C84.5603 206.798 86.6573 207.289 88.5 205.5C89.3169 204.707 89.5376 204.04 90 203C90.654 201.529 90.6816 200.578 91 199C91.2348 197.836 91.5 196 91.5 196L65 195.5L56.5 195C56.5 195 50.1716 194.891 49 194.5C47.8284 194.109 47.1716 193.891 46 193.5C46 193.5 43.9762 192.873 43 192C42.2724 191.349 42.0023 190.837 41.5 190C38.9885 185.814 40.3531 182.839 41 178C41.1574 176.823 41.6724 175.642 42 174.5C42.29 173.489 43 172 43 172C43 172 43.6054 170.475 44 169.5C44.9526 167.147 46.5 163.5 46.5 163.5C46.5 163.5 49.096 158.537 51 155.5C52.1219 153.71 54 151 54 151C54 151 56.3854 148.209 58 146.5C59.517 144.894 60.2571 143.857 62 142.5C63.4533 141.368 64.4175 140.943 66 140C67.3524 139.194 69.5 138 69.5 138C69.5 138 71.3115 137.336 72.5 137C73.2748 136.781 73.3843 136.519 74 136C74.9084 135.235 74.5965 134.471 75 133.5C75.738 131.724 77 129 77 129C77 129 78.5879 125.498 80 123.5C81.3571 121.58 83.5 119 83.5 119C83.5 119 88.0474 114.062 90 112.5C91.9526 110.938 93.0474 110.062 95 108.5C96.3668 107.719 97.1332 107.281 98.5 106.5C99.8668 105.719 103.628 104.777 107 104C110.472 103.2 116 102.5 116 102.5C116 102.5 122.39 101.517 126.5 101C130.009 100.559 135.5 100 135.5 100L144 99.5L155 99C155 99 156.249 99.2854 157 99.5C158.328 99.8793 160 101.5 160 101.5C160 101.5 160.908 102.722 161.5 104C162.098 105.29 162.5 105.571 162.5 108.5C162.5 111.429 162.5 112.571 162.5 115.5V126L162 131L161.5 133L153 133.5L146 134L137.5 134.5C137.5 134.5 136.502 134.301 136 134C135.31 133.586 135.483 132.805 135.5 132C135.528 130.69 137 129 137 129L143.5 122C143.5 122 147.709 117.626 150 114.5C151.249 112.796 153 110 153 110C153 110 154.315 108.297 154.5 107C154.583 106.42 154.891 105.695 154.5 105.5C154.109 105.305 153.891 105.195 153.5 105C153.109 104.805 151.5 106 151.5 106C151.5 106 149.323 107.465 148 108.5C144.302 111.392 139.5 117 139.5 117C139.5 117 133.858 122.96 130.5 127C128.902 128.923 128.362 130.331 126.5 132C125.249 133.121 124.469 133.686 123 134.5C121.699 135.221 119.5 136.5 119.5 136.5C119.5 136.5 116.536 137.474 114.5 138C111.469 138.783 106.5 138.5 106.5 138.5L94 139L84.5 139.5C84.5 139.5 80.5 139.5 80 140C79.5 140.5 79.5 140.5 79.5 141C79.5 141.5 81 142.5 81 142.5H85.5H94.5L108.5 142L119 141.5H127C127 141.5 126.737 142.133 126.5 142.5C125.821 143.55 124.898 144.13 124 145C121.976 146.958 120 150.5 120 150.5L117 156.5L114 163L111 169.5C111 169.5 109.987 172.643 109 174.5C107.882 176.605 107.268 177.902 105.5 179.5C104.776 180.155 104.359 180.536 103.5 181C101.916 181.855 99 182 99 182L67 182.5C67 182.5 64.9574 182.116 64.5 183C64.2309 183.52 64.1666 184.018 64.5 184.5C64.8515 185.008 66 185 66 185L83.5 185.5L105 185C105 185 108.502 185.312 110.5 184.5C111.555 184.071 112.32 183.914 113 183C113.608 182.182 113.457 181.476 113.75 180.5C114.043 179.524 114.154 178.959 114.5 178C115.241 175.946 115.837 174.847 117 173C118.333 170.884 119.138 169.669 121 168C122.251 166.879 122.971 166.195 124.5 165.5C126.139 164.755 127.214 164.722 129 164.5C131.325 164.211 135 164.5 135 164.5C135 164.5 137.151 164.78 138.5 165C140.147 165.268 142.5 166 142.5 166L146.5 167C146.5 167 148.313 167.472 149.5 167.5C150.88 167.532 151.741 167.566 153 167C154.893 166.149 155.337 164.72 156.5 163C157.723 161.191 158.311 160.072 159 158C159.81 155.563 160 151.5 160 151.5L159.5 139C159.5 139 159.586 137.914 160 137.5C160.414 137.086 161.5 137.5 161.5 137.5C161.5 137.5 162.089 138.281 162.5 139C163.275 140.356 163 143 163 143V154L162.5 166.5C162.5 166.5 162.289 170.86 163 173.5C163.161 174.096 163.448 174.724 164 175C164.552 175.276 165.66 175.034 166.5 174.5C167.324 173.976 168 172.5 168 172.5C168 172.5 168.83 170.706 169.203 169.5C169.673 167.978 170 165.5 170 165.5L171 155.5L171.5 146V134C171.5 134 172.038 122.721 172.5 115.5C172.85 110.03 173.353 106.979 173.5 101.5C173.589 98.1817 173.5 93 173.5 93C173.5 93 168.165 92.822 164.754 93C161.124 93.1895 159.103 93.5226 155.5 94C151.777 94.4933 149.718 94.967 146 95.5C139.383 96.4487 129 97.5 129 97.5L111 100L101.5 102C101.5 102 98.4618 102.955 96.5 103C95.9144 103.013 95.4142 102.914 95 102.5C94.5858 102.086 94.4681 101.085 94.5 100.5C94.5647 99.314 94.7492 98.9203 95.5 98C95.945 97.4545 97 97 97 97L107.5 96L122.5 94L143 91.5L157 90L168.5 89H178L186.5 90.5L204.5 94L218.5 97L238.5 101L253 103.5L267 106.5L279 109L287.5 110.5L290.5 111.5V126.5V194V197L290 201.5L289.5 207V211.5C289.5 211.5 289.343 215.161 290 217C290.383 218.072 290.31 218.594 291 219.5C291.837 220.598 292.252 220.909 293.5 221.5C294.4 221.926 296 222 296 222H304" stroke="black"/>
<path d="M211.945 257.704H206.394L204.729 255.298L203.619 252.892L203.732 254.928M211.945 257.704L211.575 258.445L209.725 258.815L206.394 259L205.284 258.445L204.359 257.334L203.804 256.224L203.732 254.928M211.945 257.704L212.13 256.964L211.945 254.743L210.65 252.522L209.725 251.227L208.43 250.116L208.244 249.746L208.8 249.561L211.02 248.265L211.39 247.34L211.02 236.42L210.465 231.052L209.17 224.945L207.504 220.133L206.949 204.956L206.209 200.514L204.729 193.666L203.249 190.704L202.139 189.964H198.993L196.773 190.704L193.998 191.445L193.258 192L193.443 192.37L195.293 192.74H198.808L201.214 192L202.694 190.89L203.619 189.409L203.804 188.298L203.619 185.707L203.249 182.746L202.694 177.193L202.509 170.715L202.324 164.793L201.769 160.166L201.399 159.055L200.844 158.87L200.474 159.425L200.289 161.091L200.474 162.387L201.214 164.052L201.769 165.163L203.064 165.348L205.839 165.163H206.949L205.839 165.533L204.544 165.718L203.249 166.459L202.694 167.384L203.064 169.235L203.989 172.196L204.544 174.047L205.099 176.453L205.284 180.155L205.839 182.746L206.579 184.967L206.949 186.818L207.319 188.669L207.504 190.704V192L206.764 193.851L205.839 195.517L205.654 196.627V198.848L205.839 200.514L206.579 199.033L206.949 198.108L207.319 197.923L207.874 198.108L208.244 199.218L208.43 200.699L208.244 202.55L207.874 203.66L207.319 204.586V205.141L207.874 205.511L209.17 205.141L211.02 203.845L212.13 202.18L212.5 201.254L212.13 196.257L211.575 193.481L211.76 185.892L211.39 177.934L210.835 175.713L210.28 174.047L210.095 167.754V164.793L210.835 164.238L211.02 162.387L210.65 160.166L209.91 157.204L208.43 153.133L207.134 151.097L205.284 149.431L202.694 147.95L200.474 147.025L197.883 146.099L196.588 146.47L195.663 148.506L194.183 150.171L192.148 150.727L188.817 150.912H187.707L187.522 150.727L188.262 150.356L190.667 150.171L191.778 149.801L194.183 148.506L195.293 147.025L195.663 145.914L195.293 143.508L195.015 141.935M194.738 140.362L195.293 136.845M194.738 140.362V142.953L192.703 144.989L189.742 145.914H187.522L185.672 145.174L185.302 144.619M194.738 140.362L195.015 141.935M195.293 136.845V134.624L194.738 131.478L193.813 130.367H191.778L189.742 130.182L187.522 128.887L186.042 128.517L184.932 128.887L183.637 130.367V134.254V139.251M195.293 136.845L196.033 135.92L196.773 135.18M183.637 139.251L184.562 140.547L185.672 142.028L186.967 142.953H188.817L190.852 142.028L192.518 141.102L193.813 140.547L194.183 141.102L193.443 142.953L191.778 144.064L189.742 144.619H186.412H185.302M183.637 139.251L183.267 137.956L182.711 135.735V132.403L182.896 128.887L184.562 127.036L185.672 125.555L187.522 125H191.222L193.813 126.11L196.033 127.776L197.513 130.552V132.959L197.143 133.699L196.773 135.18M183.637 139.251V141.102L183.822 142.953L184.562 144.064L185.302 144.619M195.015 141.935L195.293 140.547L196.588 139.622L197.698 138.326L197.883 136.845V135.735L197.698 134.994H197.143L196.773 135.18M185.302 145.914L184.377 147.395L182.896 148.506L180.676 149.061L178.086 149.431L176.051 150.171L174.57 151.467L173.275 153.133L172.72 155.354L172.35 158.87L171.98 161.091L171.425 163.497L171.24 166.644L174.385 166.829L177.161 167.754L178.826 168.309L179.381 166.829V165.163L178.271 162.942L177.346 161.276L176.421 159.425L175.866 159.61V161.276L176.421 163.497L177.346 165.163L178.826 166.829L180.676 168.865L181.786 169.79V171.086L181.231 171.826H179.751L179.196 173.307V174.602L179.011 177.193V179.044L178.826 179.599H178.456V173.122L178.086 171.086L177.716 170.345L176.421 168.494L175.311 167.939L174.385 167.754H173.09L172.535 168.309L172.165 169.235V171.826L171.98 176.083L171.795 179.229L171.425 181.08L171.24 182.746L171.055 185.337V187.373L171.24 189.779V193.11V196.627L170.87 200.329L170.5 203.29V204.215L171.055 204.771L172.35 205.696L173.83 206.436H175.126L175.496 205.881V205.326L174.2 204.586L173.46 203.66L173.09 202.18L173.46 200.329L174.2 198.848L174.756 198.478L175.126 198.848V199.959V201.624L175.496 202.365L176.236 202.92L176.791 202.365V200.329V196.997L175.496 194.961L174.756 193.296V191.445L175.126 189.779L175.866 187.558L176.791 185.337L177.346 183.671L177.716 182.746L178.086 182.561L178.456 183.301L178.826 184.597L179.011 186.818V189.039L178.826 190.519L178.641 191.815V192.185L179.381 192.74L180.676 192.925H185.857H187.892L188.447 193.11L188.262 193.666H186.227L183.637 194.036L181.971 194.406L180.491 194.961L179.011 195.976L178.456 196.997V199.773L178.641 201.994L179.011 204.215L179.566 206.992L180.491 211.434L181.046 213.655L181.416 216.061L181.601 219.207L181.416 221.243L180.861 224.945L180.676 226.981L180.861 230.127L181.416 231.978L181.971 233.829L182.156 237.53L181.971 239.011L181.601 241.232L180.861 245.489L181.046 248.265L181.971 249.376L183.267 249.931H185.487L187.707 249.746L188.632 249.931L188.077 250.301H184.562L182.526 250.486L181.601 251.041L180.491 252.337L179.196 254.188L178.086 254.743L177.161 254.928L176.236 255.483L175.866 256.224V257.149L176.236 257.704L178.086 258.26L180.306 257.889L182.711 257.149L184.932 256.409L186.782 255.483L187.522 254.928L190.297 254.743L191.593 254.373L192.148 253.262V251.782L191.778 249.931L191.407 248.82L190.667 248.265H189.742L189.372 247.895L189.927 247.525H191.778L192.703 246.97L192.888 245.489L192.703 241.417L191.963 237.53V233.829L191.778 230.497L192.148 225.87L192.703 219.022V211.804V208.102L192.518 206.436V204.771L193.073 204.956L193.443 206.436L194.553 209.583L196.773 214.58L197.513 216.986L198.253 221.613L198.623 225.87L199.178 230.867L199.919 234.939L201.399 239.566V243.083V249.931L203.732 254.928" stroke="#FF6A00" stroke-width="1.26"/>
</svg>
