<svg width="331" height="331" viewBox="0 0 331 331" fill="none" xmlns="http://www.w3.org/2000/svg">
<circle cx="165.5" cy="165.5" r="165.5" fill="#E4E4E4"/>
<path d="M27 226.5H66C66 226.5 65.7634 229.681 66.5 231.5C67.0285 232.805 67.666 233.866 68.5 235C69.2406 236.007 69.5569 236.179 70.5 237C71.8174 238.147 72.8593 238.401 74.5 239C76.0126 239.552 76.9043 239.784 78.5 240C80.435 240.261 81.6057 240.474 83.5 240C85.1943 239.576 86.0876 239.527 87.5 238.5C87.5 238.5 89.9761 236.572 90.5 235C90.8705 233.889 91.5193 232.578 90.5 232C89.5852 231.482 87.5 232.5 87.5 232.5C87.5 232.5 86.0388 233.337 85 233.5C83.6359 233.714 82.8106 233.434 81.5 233C79.7514 232.421 78.7502 231.853 77.5 230.5C76.4316 229.344 75.5 227 75.5 227L94.5 228H106C106 228 111.624 228.979 115.5 228.5C118.275 228.157 120.092 227.92 122.5 226.5C123.341 226.004 125 225 125 225H129H133.5L134.5 228C134.5 228 135.632 230.484 136.5 232C137.549 233.833 138.041 234.973 139.5 236.5C141.147 238.223 141.807 239.567 144 240.5C145.308 241.056 146.106 241.22 147.5 241.5C150.946 242.193 153.758 242.357 157 241C159.307 240.034 160.827 238.859 162.5 237C164.203 235.108 164.605 233.883 165.5 231.5C166.2 229.636 166.25 228.475 166.5 226.5C166.942 223.013 167.088 220.965 166.5 217.5C166.23 215.913 166.114 214.989 165.5 213.5C164.798 211.797 164.143 210.945 163 209.5C161.801 207.984 161.149 207.008 159.5 206C157.919 205.034 157.323 204.331 155.5 204C153.195 203.581 151.24 203.311 149 204C147.748 204.385 146.562 204.243 145 206C143.438 207.757 146.062 204.743 144.5 206.5C142.938 208.257 139.5 215 139.5 215L138.5 217.5C138.5 217.5 137.833 215.371 138 214C138.18 212.524 139.5 210.5 139.5 210.5C139.5 210.5 141.349 207.219 143 205.5C144.542 203.895 145.534 203.044 147.5 202C148.974 201.218 149.875 200.879 151.5 200.5C154.352 199.835 156.195 199.658 159 200.5C160.673 201.002 161.575 201.491 163 202.5C164.577 203.617 166.5 206 166.5 206C167.672 208.148 168.328 209.352 169.5 211.5C170.672 213.648 170.213 214.836 170.5 217C170.86 219.717 171 224 171 224L227.5 223L228 226.5C228 226.5 228.467 228.386 229 229.5C229.842 231.262 232 233.5 232 233.5C232 233.5 234.767 236.167 237 237C240.11 238.16 242.382 238.14 245.5 237C247.994 236.088 249.266 235.012 251 233C252.597 231.147 254 227.5 254 227.5C254 227.5 254.808 224.482 255 222.5C255.302 219.384 254.5 214.5 254.5 214.5C254.5 214.5 254.245 211.639 253.5 210C252.805 208.471 252.188 207.688 251 206.5C249.812 205.312 247.5 204 247.5 204C247.5 204 246.9 203.674 246.5 203.5C243.457 202.174 238 203.5 238 203.5C238 203.5 236.059 203.865 235 204.5C233.456 205.426 232.993 206.498 232 208C231.037 209.457 230 212 230 212L228 219.82C228 219.82 228.341 213.105 229.5 209C230.121 206.801 230.205 205.383 231.5 203.5C232.439 202.135 233.18 201.501 234.5 200.5C235.754 199.549 236.536 199.08 238 198.5C238.574 198.273 238.904 198.162 239.5 198C242.516 197.181 244.541 197.194 247.5 198.2C248.955 198.695 250.177 199.218 251.5 200C252.712 200.717 252.971 201.039 254 202C254.914 202.853 256 204.5 256 204.5C256 204.5 257.42 207.167 258 209C258.659 211.081 259 214.5 259 214.5V220H283L284 209L284.745 204.5L285.5 199L286 195H169.5C169.5 195 167.726 194.377 167 193.5C166.213 192.548 166 190.5 166 190.5C166 190.5 166.048 187.384 165.5 185.5C165.207 184.49 164.5 183 164.5 183C164.5 183 163.769 181.808 163 181.5C162.275 181.21 161.765 181.344 161 181.5C158.696 181.969 156.5 186 156.5 186L148.5 195.5C148.5 195.5 143.838 201.041 140 203.5C137.794 204.913 136.369 205.381 134 206.5C130.917 207.957 129.344 209.332 126 210C122.936 210.612 118 210 118 210L119 206.5C119 206.5 119.747 204.399 120 203C120.451 200.502 120.93 198.862 120 196.5C119.583 195.441 118.5 194 118.5 194C118.5 194 116.582 191.859 115 191C111.397 189.043 104.5 191 104.5 191C104.5 191 102.926 191.502 102 192C100.172 192.984 98.9527 194.017 97.5 195.5C96.2401 196.786 95.493 197.498 94.5 199C93.5367 200.457 93.4595 201.315 93 203C92.3835 205.261 93 209 93 209H109C109 209 110.476 209.301 111 210C111.37 210.494 111.5 211.5 111.5 211.5C111.5 211.5 111.218 211.83 111 212L110 212.5H94H85.5H76H71.5L49 212V223L42 222.5L40 221.5C40 221.5 37.644 214.942 39.5 211.5C39.8342 210.88 40.5 210 40.5 210L41.5 209C41.5 209 41.6102 207.47 41.5 206.5C41.3395 205.088 40.8244 204.384 40.5 203C39.7372 199.746 39.5 194.5 39.5 194.5C39.5 194.5 39.7702 194.153 40 194C40.6499 193.567 42 194 42 194C42 194 43.9783 195.368 45 196.5C45.6541 197.225 46.0682 197.624 46.5 198.5C47.5364 200.601 45.0941 202.625 46.5 204.5C46.8314 204.942 47.0374 205.198 47.5 205.5C48.334 206.044 50 206 50 206H55.5L65.5 206.5L74 207C74 207 78.7748 207.215 81.5 207C84.0603 206.798 86.1573 207.289 88 205.5C88.8169 204.707 89.0376 204.04 89.5 203C90.154 201.529 90.1816 200.578 90.5 199C90.7348 197.836 91 196 91 196L64.5 195.5L56 195C56 195 49.6716 194.891 48.5 194.5C47.3284 194.109 46.6716 193.891 45.5 193.5C45.5 193.5 43.4762 192.873 42.5 192C41.7724 191.349 41.5023 190.837 41 190C38.4885 185.814 39.8531 182.839 40.5 178C40.6574 176.823 41.1724 175.642 41.5 174.5C41.79 173.489 42.5 172 42.5 172C42.5 172 43.1054 170.475 43.5 169.5C44.4526 167.147 46 163.5 46 163.5C46 163.5 48.596 158.537 50.5 155.5C51.6219 153.71 53.5 151 53.5 151C53.5 151 55.8854 148.209 57.5 146.5C59.017 144.894 59.7571 143.857 61.5 142.5C62.9533 141.368 63.9175 140.943 65.5 140C66.8524 139.194 69 138 69 138C69 138 70.8115 137.336 72 137C72.7748 136.781 72.8843 136.519 73.5 136C74.4084 135.235 74.0965 134.471 74.5 133.5C75.238 131.724 76.5 129 76.5 129C76.5 129 78.0879 125.498 79.5 123.5C80.8571 121.58 83 119 83 119C83 119 87.5474 114.062 89.5 112.5C91.4526 110.938 92.5474 110.062 94.5 108.5C95.8668 107.719 96.6332 107.281 98 106.5C99.3668 105.719 103.128 104.777 106.5 104C109.972 103.2 115.5 102.5 115.5 102.5C115.5 102.5 121.89 101.517 126 101C129.509 100.559 135 100 135 100L143.5 99.5L154.5 99C154.5 99 155.749 99.2854 156.5 99.5C157.828 99.8793 159.5 101.5 159.5 101.5C159.5 101.5 160.408 102.722 161 104C161.598 105.29 162 105.571 162 108.5C162 111.429 162 112.571 162 115.5V126L161.5 131L161 133L152.5 133.5L145.5 134L137 134.5C137 134.5 136.002 134.301 135.5 134C134.81 133.586 134.983 132.805 135 132C135.028 130.69 136.5 129 136.5 129L143 122C143 122 147.209 117.626 149.5 114.5C150.749 112.796 152.5 110 152.5 110C152.5 110 153.815 108.297 154 107C154.083 106.42 154.391 105.695 154 105.5C153.609 105.305 153.391 105.195 153 105C152.609 104.805 151 106 151 106C151 106 148.823 107.465 147.5 108.5C143.802 111.392 139 117 139 117C139 117 133.358 122.96 130 127C128.402 128.923 127.862 130.331 126 132C124.749 133.121 123.969 133.686 122.5 134.5C121.199 135.221 119 136.5 119 136.5C119 136.5 116.036 137.474 114 138C110.969 138.783 106 138.5 106 138.5L93.5 139L84 139.5C84 139.5 80 139.5 79.5 140C79 140.5 79 140.5 79 141C79 141.5 80.5 142.5 80.5 142.5H85H94L108 142L118.5 141.5H126.5C126.5 141.5 126.237 142.133 126 142.5C125.321 143.55 124.398 144.13 123.5 145C121.476 146.958 119.5 150.5 119.5 150.5L116.5 156.5L113.5 163L110.5 169.5C110.5 169.5 109.487 172.643 108.5 174.5C107.382 176.605 106.768 177.902 105 179.5C104.276 180.155 103.859 180.536 103 181C101.416 181.855 98.5 182 98.5 182L66.5 182.5C66.5 182.5 64.4574 182.116 64 183C63.7309 183.52 63.6666 184.018 64 184.5C64.3515 185.008 65.5 185 65.5 185L83 185.5L104.5 185C104.5 185 108.002 185.312 110 184.5C111.055 184.071 111.82 183.914 112.5 183C113.108 182.182 112.957 181.476 113.25 180.5C113.543 179.524 113.654 178.959 114 178C114.741 175.946 115.337 174.847 116.5 173C117.833 170.884 118.638 169.669 120.5 168C121.751 166.879 122.471 166.195 124 165.5C125.639 164.755 126.714 164.722 128.5 164.5C130.825 164.211 134.5 164.5 134.5 164.5C134.5 164.5 136.651 164.78 138 165C139.647 165.268 142 166 142 166L146 167C146 167 147.813 167.472 149 167.5C150.38 167.532 151.241 167.566 152.5 167C154.393 166.149 154.837 164.72 156 163C157.223 161.191 157.811 160.072 158.5 158C159.31 155.563 159.5 151.5 159.5 151.5L159 139C159 139 159.086 137.914 159.5 137.5C159.914 137.086 161 137.5 161 137.5C161 137.5 161.589 138.281 162 139C162.775 140.356 162.5 143 162.5 143V154L162 166.5C162 166.5 161.789 170.86 162.5 173.5C162.661 174.096 162.948 174.724 163.5 175C164.052 175.276 165.16 175.034 166 174.5C166.824 173.976 167.5 172.5 167.5 172.5C167.5 172.5 168.33 170.706 168.703 169.5C169.173 167.978 169.5 165.5 169.5 165.5L170.5 155.5L171 146V134C171 134 171.538 122.721 172 115.5C172.35 110.03 172.853 106.979 173 101.5C173.089 98.1817 173 93 173 93C173 93 167.665 92.822 164.254 93C160.624 93.1895 158.603 93.5226 155 94C151.277 94.4933 149.218 94.967 145.5 95.5C138.883 96.4487 128.5 97.5 128.5 97.5L110.5 100L101 102C101 102 97.9618 102.955 96 103C95.4144 103.013 94.9142 102.914 94.5 102.5C94.0858 102.086 93.9681 101.085 94 100.5C94.0647 99.314 94.2492 98.9203 95 98C95.445 97.4545 96.5 97 96.5 97L107 96L122 94L142.5 91.5L156.5 90L168 89H177.5L186 90.5L204 94L218 97L238 101L252.5 103.5L266.5 106.5L278.5 109L287 110.5L290 111.5V126.5V194V197L289.5 201.5L289 207V211.5C289 211.5 288.843 215.161 289.5 217C289.883 218.072 289.81 218.594 290.5 219.5C291.337 220.598 291.752 220.909 293 221.5C293.9 221.926 295.5 222 295.5 222H303.5" stroke="black"/>
<path d="M211.445 257.704H205.894L204.229 255.298L203.119 252.892L203.232 254.928M211.445 257.704L211.075 258.445L209.225 258.815L205.894 259L204.784 258.445L203.859 257.334L203.304 256.224L203.232 254.928M211.445 257.704L211.63 256.964L211.445 254.743L210.15 252.522L209.225 251.227L207.93 250.116L207.744 249.746L208.3 249.561L210.52 248.265L210.89 247.34L210.52 236.42L209.965 231.052L208.67 224.945L207.004 220.133L206.449 204.956L205.709 200.514L204.229 193.666L202.749 190.704L201.639 189.964H198.493L196.273 190.704L193.498 191.445L192.758 192L192.943 192.37L194.793 192.74H198.308L200.714 192L202.194 190.89L203.119 189.409L203.304 188.298L203.119 185.707L202.749 182.746L202.194 177.193L202.009 170.715L201.824 164.793L201.269 160.166L200.899 159.055L200.344 158.87L199.974 159.425L199.789 161.091L199.974 162.387L200.714 164.052L201.269 165.163L202.564 165.348L205.339 165.163H206.449L205.339 165.533L204.044 165.718L202.749 166.459L202.194 167.384L202.564 169.235L203.489 172.196L204.044 174.047L204.599 176.453L204.784 180.155L205.339 182.746L206.079 184.967L206.449 186.818L206.819 188.669L207.004 190.704V192L206.264 193.851L205.339 195.517L205.154 196.627V198.848L205.339 200.514L206.079 199.033L206.449 198.108L206.819 197.923L207.374 198.108L207.744 199.218L207.93 200.699L207.744 202.55L207.374 203.66L206.819 204.586V205.141L207.374 205.511L208.67 205.141L210.52 203.845L211.63 202.18L212 201.254L211.63 196.257L211.075 193.481L211.26 185.892L210.89 177.934L210.335 175.713L209.78 174.047L209.595 167.754V164.793L210.335 164.238L210.52 162.387L210.15 160.166L209.41 157.204L207.93 153.133L206.634 151.097L204.784 149.431L202.194 147.95L199.974 147.025L197.383 146.099L196.088 146.47L195.163 148.506L193.683 150.171L191.648 150.727L188.317 150.912H187.207L187.022 150.727L187.762 150.356L190.167 150.171L191.278 149.801L193.683 148.506L194.793 147.025L195.163 145.914L194.793 143.508L194.515 141.935M194.238 140.362L194.793 136.845M194.238 140.362V142.953L192.203 144.989L189.242 145.914H187.022L185.172 145.174L184.802 144.619M194.238 140.362L194.515 141.935M194.793 136.845V134.624L194.238 131.478L193.313 130.367H191.278L189.242 130.182L187.022 128.887L185.542 128.517L184.432 128.887L183.137 130.367V134.254V139.251M194.793 136.845L195.533 135.92L196.273 135.18M183.137 139.251L184.062 140.547L185.172 142.028L186.467 142.953H188.317L190.352 142.028L192.018 141.102L193.313 140.547L193.683 141.102L192.943 142.953L191.278 144.064L189.242 144.619H185.912H184.802M183.137 139.251L182.767 137.956L182.211 135.735V132.403L182.396 128.887L184.062 127.036L185.172 125.555L187.022 125H190.722L193.313 126.11L195.533 127.776L197.013 130.552V132.959L196.643 133.699L196.273 135.18M183.137 139.251V141.102L183.322 142.953L184.062 144.064L184.802 144.619M194.515 141.935L194.793 140.547L196.088 139.622L197.198 138.326L197.383 136.845V135.735L197.198 134.994H196.643L196.273 135.18M184.802 145.914L183.877 147.395L182.396 148.506L180.176 149.061L177.586 149.431L175.551 150.171L174.07 151.467L172.775 153.133L172.22 155.354L171.85 158.87L171.48 161.091L170.925 163.497L170.74 166.644L173.885 166.829L176.661 167.754L178.326 168.309L178.881 166.829V165.163L177.771 162.942L176.846 161.276L175.921 159.425L175.366 159.61V161.276L175.921 163.497L176.846 165.163L178.326 166.829L180.176 168.865L181.286 169.79V171.086L180.731 171.826H179.251L178.696 173.307V174.602L178.511 177.193V179.044L178.326 179.599H177.956V173.122L177.586 171.086L177.216 170.345L175.921 168.494L174.811 167.939L173.885 167.754H172.59L172.035 168.309L171.665 169.235V171.826L171.48 176.083L171.295 179.229L170.925 181.08L170.74 182.746L170.555 185.337V187.373L170.74 189.779V193.11V196.627L170.37 200.329L170 203.29V204.215L170.555 204.771L171.85 205.696L173.33 206.436H174.626L174.996 205.881V205.326L173.7 204.586L172.96 203.66L172.59 202.18L172.96 200.329L173.7 198.848L174.256 198.478L174.626 198.848V199.959V201.624L174.996 202.365L175.736 202.92L176.291 202.365V200.329V196.997L174.996 194.961L174.256 193.296V191.445L174.626 189.779L175.366 187.558L176.291 185.337L176.846 183.671L177.216 182.746L177.586 182.561L177.956 183.301L178.326 184.597L178.511 186.818V189.039L178.326 190.519L178.141 191.815V192.185L178.881 192.74L180.176 192.925H185.357H187.392L187.947 193.11L187.762 193.666H185.727L183.137 194.036L181.471 194.406L179.991 194.961L178.511 195.976L177.956 196.997V199.773L178.141 201.994L178.511 204.215L179.066 206.992L179.991 211.434L180.546 213.655L180.916 216.061L181.101 219.207L180.916 221.243L180.361 224.945L180.176 226.981L180.361 230.127L180.916 231.978L181.471 233.829L181.656 237.53L181.471 239.011L181.101 241.232L180.361 245.489L180.546 248.265L181.471 249.376L182.767 249.931H184.987L187.207 249.746L188.132 249.931L187.577 250.301H184.062L182.026 250.486L181.101 251.041L179.991 252.337L178.696 254.188L177.586 254.743L176.661 254.928L175.736 255.483L175.366 256.224V257.149L175.736 257.704L177.586 258.26L179.806 257.889L182.211 257.149L184.432 256.409L186.282 255.483L187.022 254.928L189.797 254.743L191.093 254.373L191.648 253.262V251.782L191.278 249.931L190.907 248.82L190.167 248.265H189.242L188.872 247.895L189.427 247.525H191.278L192.203 246.97L192.388 245.489L192.203 241.417L191.463 237.53V233.829L191.278 230.497L191.648 225.87L192.203 219.022V211.804V208.102L192.018 206.436V204.771L192.573 204.956L192.943 206.436L194.053 209.583L196.273 214.58L197.013 216.986L197.753 221.613L198.123 225.87L198.678 230.867L199.419 234.939L200.899 239.566V243.083V249.931L203.232 254.928" stroke="#FF6A00" stroke-width="1.26"/>
<path d="M256.445 257.704H250.894L249.229 255.298L248.119 252.892L248.232 254.928M256.445 257.704L256.075 258.445L254.225 258.815L250.894 259L249.784 258.445L248.859 257.334L248.304 256.224L248.232 254.928M256.445 257.704L256.63 256.964L256.445 254.743L255.15 252.522L254.225 251.227L252.93 250.116L252.744 249.746L253.3 249.561L255.52 248.265L255.89 247.34L255.52 236.42L254.965 231.052L253.67 224.945L252.004 220.133L251.449 204.956L250.709 200.514L249.229 193.666L247.749 190.704L246.639 189.964H243.493L241.273 190.704L238.498 191.445L237.758 192L237.943 192.37L239.793 192.74H243.308L245.714 192L247.194 190.89L248.119 189.409L248.304 188.298L248.119 185.707L247.749 182.746L247.194 177.193L247.009 170.715L246.824 164.793L246.269 160.166L245.899 159.055L245.344 158.87L244.974 159.425L244.789 161.091L244.974 162.387L245.714 164.052L246.269 165.163L247.564 165.348L250.339 165.163H251.449L250.339 165.533L249.044 165.718L247.749 166.459L247.194 167.384L247.564 169.235L248.489 172.196L249.044 174.047L249.599 176.453L249.784 180.155L250.339 182.746L251.079 184.967L251.449 186.818L251.819 188.669L252.004 190.704V192L251.264 193.851L250.339 195.517L250.154 196.627V198.848L250.339 200.514L251.079 199.033L251.449 198.108L251.819 197.923L252.374 198.108L252.744 199.218L252.93 200.699L252.744 202.55L252.374 203.66L251.819 204.586V205.141L252.374 205.511L253.67 205.141L255.52 203.845L256.63 202.18L257 201.254L256.63 196.257L256.075 193.481L256.26 185.892L255.89 177.934L255.335 175.713L254.78 174.047L254.595 167.754V164.793L255.335 164.238L255.52 162.387L255.15 160.166L254.41 157.204L252.93 153.133L251.634 151.097L249.784 149.431L247.194 147.95L244.974 147.025L242.383 146.099L241.088 146.47L240.163 148.506L238.683 150.171L236.648 150.727L233.317 150.912H232.207L232.022 150.727L232.762 150.356L235.167 150.171L236.278 149.801L238.683 148.506L239.793 147.025L240.163 145.914L239.793 143.508L239.515 141.935M239.238 140.362L239.793 136.845M239.238 140.362V142.953L237.203 144.989L234.242 145.914H232.022L230.172 145.174L229.802 144.619M239.238 140.362L239.515 141.935M239.793 136.845V134.624L239.238 131.478L238.313 130.367H236.278L234.242 130.182L232.022 128.887L230.542 128.517L229.432 128.887L228.137 130.367V134.254V139.251M239.793 136.845L240.533 135.92L241.273 135.18M228.137 139.251L229.062 140.547L230.172 142.028L231.467 142.953H233.317L235.352 142.028L237.018 141.102L238.313 140.547L238.683 141.102L237.943 142.953L236.278 144.064L234.242 144.619H230.912H229.802M228.137 139.251L227.767 137.956L227.211 135.735V132.403L227.396 128.887L229.062 127.036L230.172 125.555L232.022 125H235.722L238.313 126.11L240.533 127.776L242.013 130.552V132.959L241.643 133.699L241.273 135.18M228.137 139.251V141.102L228.322 142.953L229.062 144.064L229.802 144.619M239.515 141.935L239.793 140.547L241.088 139.622L242.198 138.326L242.383 136.845V135.735L242.198 134.994H241.643L241.273 135.18M229.802 145.914L228.877 147.395L227.396 148.506L225.176 149.061L222.586 149.431L220.551 150.171L219.07 151.467L217.775 153.133L217.22 155.354L216.85 158.87L216.48 161.091L215.925 163.497L215.74 166.644L218.885 166.829L221.661 167.754L223.326 168.309L223.881 166.829V165.163L222.771 162.942L221.846 161.276L220.921 159.425L220.366 159.61V161.276L220.921 163.497L221.846 165.163L223.326 166.829L225.176 168.865L226.286 169.79V171.086L225.731 171.826H224.251L223.696 173.307V174.602L223.511 177.193V179.044L223.326 179.599H222.956V173.122L222.586 171.086L222.216 170.345L220.921 168.494L219.811 167.939L218.885 167.754H217.59L217.035 168.309L216.665 169.235V171.826L216.48 176.083L216.295 179.229L215.925 181.08L215.74 182.746L215.555 185.337V187.373L215.74 189.779V193.11V196.627L215.37 200.329L215 203.29V204.215L215.555 204.771L216.85 205.696L218.33 206.436H219.626L219.996 205.881V205.326L218.7 204.586L217.96 203.66L217.59 202.18L217.96 200.329L218.7 198.848L219.256 198.478L219.626 198.848V199.959V201.624L219.996 202.365L220.736 202.92L221.291 202.365V200.329V196.997L219.996 194.961L219.256 193.296V191.445L219.626 189.779L220.366 187.558L221.291 185.337L221.846 183.671L222.216 182.746L222.586 182.561L222.956 183.301L223.326 184.597L223.511 186.818V189.039L223.326 190.519L223.141 191.815V192.185L223.881 192.74L225.176 192.925H230.357H232.392L232.947 193.11L232.762 193.666H230.727L228.137 194.036L226.471 194.406L224.991 194.961L223.511 195.976L222.956 196.997V199.773L223.141 201.994L223.511 204.215L224.066 206.992L224.991 211.434L225.546 213.655L225.916 216.061L226.101 219.207L225.916 221.243L225.361 224.945L225.176 226.981L225.361 230.127L225.916 231.978L226.471 233.829L226.656 237.53L226.471 239.011L226.101 241.232L225.361 245.489L225.546 248.265L226.471 249.376L227.767 249.931H229.987L232.207 249.746L233.132 249.931L232.577 250.301H229.062L227.026 250.486L226.101 251.041L224.991 252.337L223.696 254.188L222.586 254.743L221.661 254.928L220.736 255.483L220.366 256.224V257.149L220.736 257.704L222.586 258.26L224.806 257.889L227.211 257.149L229.432 256.409L231.282 255.483L232.022 254.928L234.797 254.743L236.093 254.373L236.648 253.262V251.782L236.278 249.931L235.907 248.82L235.167 248.265H234.242L233.872 247.895L234.427 247.525H236.278L237.203 246.97L237.388 245.489L237.203 241.417L236.463 237.53V233.829L236.278 230.497L236.648 225.87L237.203 219.022V211.804V208.102L237.018 206.436V204.771L237.573 204.956L237.943 206.436L239.053 209.583L241.273 214.58L242.013 216.986L242.753 221.613L243.123 225.87L243.678 230.867L244.419 234.939L245.899 239.566V243.083V249.931L248.232 254.928" stroke="#FF6A00" stroke-width="1.26"/>
</svg>
