<svg width="176" height="65" viewBox="0 0 176 65" fill="none" xmlns="http://www.w3.org/2000/svg">
<path d="M27.7666 4.2766C20.5469 5.18304 13.359 9.31766 8.92225 15.0902C6.09163 18.7478 3.80168 24.1069 3.42003 27.9394C3.18149 30.277 3.34051 36.7493 3.65856 38.2123C5.31241 45.4956 9.95591 52.2223 15.9988 56.1502C17.5413 57.152 20.3402 58.5674 21.9622 59.1716C27.2259 61.1594 34.7159 61.239 40.4885 59.4102C44.5754 58.1062 47.8036 56.0707 51.811 52.2859L53.9737 50.2186H109.457L164.925 50.2027L165.37 49.6302L165.799 49.0418L165.131 48.358L164.464 47.6742H110.109C80.2127 47.6742 55.7548 47.6424 55.7548 47.6106C55.7548 47.5788 56.216 46.5929 56.7725 45.432C59.2374 40.3432 60.1915 35.3976 59.7463 30.1021C59.3169 25.0451 57.7744 20.5288 55.1505 16.6169C50.2048 9.31766 42.7943 4.84909 34.5728 4.2607C31.9648 4.08577 29.2614 4.08577 27.7666 4.2766ZM36.7673 5.99406C40.1704 6.63015 44.0188 8.22039 46.929 10.2082C49.4574 11.9416 52.4948 15.0743 54.3077 17.8572C58.7603 24.6635 59.7463 34.4116 56.7566 42.013C56.0251 43.8735 54.9438 46.0363 54.0691 47.388L53.3694 48.4693H82.6775C112.033 48.4693 140.53 48.6602 147.83 48.8987C151.646 49.0259 151.694 49.0259 149.897 49.1372C148.895 49.2167 126.648 49.2963 100.456 49.344L52.8446 49.4076L51.2385 50.9819C49.2666 52.8902 48.4874 53.5422 46.4837 54.8939C43.8439 56.6909 41.061 57.9154 37.6579 58.7741C36.0199 59.1875 35.7973 59.2034 31.9807 59.2034C28.2755 59.1875 27.862 59.1557 25.9696 58.7582C23.3775 58.2016 21.9463 57.7245 19.5769 56.5796C16.5077 55.1006 13.852 53.081 11.4984 50.4571C8.6042 47.213 6.82314 44.0008 5.58275 39.8025C4.85124 37.3059 4.5491 35 4.5491 31.7559C4.5491 28.7027 4.93075 26.2855 5.83719 23.5821C7.9363 17.3643 12.8501 11.7666 19.0203 8.57025C21.8668 7.09132 23.6956 6.50294 27.3372 5.83504C29.5476 5.43748 34.207 5.51699 36.7673 5.99406Z" fill="white"/>
<path d="M28.5617 6.90062C22.2325 7.69574 16.4123 10.7172 12.1822 15.3766C9.33571 18.5094 7.77727 21.3559 6.50508 25.6495C6.01211 27.3511 5.9326 27.8759 5.80538 30.4203C5.63045 33.8075 5.78948 36.0656 6.37786 38.3555C8.92225 48.1355 16.8257 55.6732 26.5421 57.5497C28.3868 57.8996 33.2688 57.995 35.5587 57.7088C45.0525 56.5161 53.7988 48.8034 56.3591 39.3733C57.8062 34.0778 57.4722 27.7487 55.4844 22.7076C53.6398 18.0323 49.4256 13.1503 44.8775 10.3991C40.886 7.99789 37.149 6.98013 31.9012 6.88472C30.3746 6.85292 28.8638 6.86882 28.5617 6.90062ZM33.4119 21.5308C34.6364 21.6739 35.8927 21.8648 36.1948 21.9761C36.7037 22.1351 36.7514 22.1987 36.7514 22.7871V23.4232L35.6383 23.455C34.207 23.5186 30.5336 23.9639 30.0565 24.1547C29.7703 24.2501 29.6749 24.4092 29.6749 24.7908C29.6749 25.2838 29.6908 25.2838 30.2792 25.1884C32.9826 24.7113 36.6401 24.6795 40.886 25.093C43.176 25.3156 43.5894 25.3951 43.9393 25.729C44.1142 25.8881 44.6708 27.0012 45.1797 28.1939C46.0861 30.3407 46.3883 30.7383 47.247 31.0245C47.3424 31.0564 47.3901 31.5334 47.3742 32.1218L47.3265 33.1714L48.058 33.4258C48.4715 33.5689 49.1076 33.8552 49.4892 34.0778C50.4116 34.6185 50.5706 35.1433 50.4275 37.306C50.3003 39.5164 50.2207 39.8504 49.855 40.0571C49.5687 40.2002 45.6409 40.3911 39.105 40.5819L36.3857 40.6455L35.9881 40.073C35.7814 39.755 35.2725 39.103 34.8431 38.6418L34.0957 37.8149H32.9189C32.1715 37.8149 31.5513 37.9103 31.2651 38.0534C30.6608 38.3715 30.0406 39.1825 29.659 40.1843C29.1819 41.4406 29.5794 41.9177 30.2314 40.8522C31.7581 38.3396 33.1257 38.3078 34.9226 40.7727L35.5428 41.5996L39.105 41.711C41.0769 41.7746 42.7466 41.87 42.8102 41.9336C42.8897 41.9813 43.0647 42.2357 43.1919 42.5061C43.5099 43.1104 44.3846 43.6988 44.973 43.6988C45.6409 43.6988 46.3565 43.1263 46.7063 42.3311C46.9926 41.711 47.088 41.6473 47.6923 41.5519C48.058 41.4883 48.7577 41.4724 49.2348 41.5042C50.0935 41.5519 50.1094 41.5678 50.1094 42.029C50.1094 42.4584 50.0617 42.5061 49.5528 42.5538C48.5351 42.6333 48.2966 42.7446 48.0262 43.2694C47.3901 44.5098 46.0702 45.448 44.9253 45.448C44.0665 45.448 42.8897 44.8119 42.3014 44.0168C42.0469 43.6828 41.6812 43.3171 41.4744 43.2376C41.0292 43.0309 39.5025 43.0149 37.4829 43.2217C35.9404 43.3648 35.3838 43.6351 35.1612 44.3667C35.0181 44.796 33.7936 45.448 33.1098 45.448C32.3624 45.448 31.3923 44.955 30.9311 44.3189C29.8657 42.9195 29.9611 42.9672 27.6871 42.8559C26.5421 42.7923 24.3635 42.7128 22.8368 42.6492L20.0539 42.5697L19.6564 43.4125C19.1316 44.5416 18.4637 44.9709 17.2869 44.9709C15.9511 44.9709 14.7266 44.0963 14.4245 42.9354C14.3132 42.5379 14.2336 42.5061 13.2159 42.3948C11.7688 42.2516 11.6893 42.1403 11.737 40.2002C11.7847 38.7372 11.8006 38.6895 12.1663 38.6418C12.6275 38.5623 12.8183 38.8326 12.8183 39.5959C12.8183 40.4865 13.0728 40.9953 13.4862 40.9953C13.9792 40.9953 14.1064 40.8681 14.4881 40.1207C14.9493 39.2302 15.6967 38.769 16.7144 38.769C17.7004 38.769 18.3524 39.1507 19.1475 40.2002C19.4496 40.5978 19.7677 40.9635 19.879 41.0112C20.0698 41.1226 24.7928 41.4724 26.1445 41.4724C26.8919 41.4724 26.9715 41.4406 27.0669 41.059C27.1305 40.7886 27.0987 40.5978 26.9556 40.5024C26.8283 40.4229 25.8265 40.3592 24.7133 40.3592H22.6778V39.5641V38.769H25.3653H28.0369L28.1482 38.0375C28.1959 37.624 28.2436 33.6484 28.2436 29.1799V21.0697L29.7226 21.181C30.5177 21.2446 32.1874 21.4036 33.4119 21.5308ZM26.4944 21.6898C26.7488 22.3418 26.7011 37.6558 26.4626 37.6558C19.1952 37.5127 12.4049 37.3219 12.1027 37.2424L11.7052 37.147V30.7224C11.7052 27.1921 11.7211 24.2978 11.7529 24.2978C11.7688 24.2819 15.0129 23.614 18.9408 22.803C22.8845 21.9761 26.1445 21.3082 26.224 21.2923C26.2877 21.2764 26.4149 21.4672 26.4944 21.6898Z" fill="white"/>
<path d="M32.5851 26.1585C32.4738 26.1903 32.3784 26.3652 32.3784 26.5401C32.3784 26.89 34.0164 31.0246 34.3821 31.5653L34.6048 31.931H40.1865H45.7682L45.6728 31.5335C45.5297 30.9451 44.1621 27.7964 43.7963 27.1921C43.6214 26.9218 43.3352 26.6514 43.1443 26.6037C41.9039 26.3175 33.094 25.9358 32.5851 26.1585Z" fill="white"/>
<path d="M30.6608 27.6691C30.1678 28.671 29.6748 30.7542 29.6748 31.7401V32.6147L31.44 32.5193C32.41 32.4716 33.2528 32.3921 33.3005 32.3444C33.5232 32.1218 31.5195 27.1602 31.1696 27.0489C31.0583 27.0171 30.8357 27.2874 30.6608 27.6691Z" fill="white"/>
<path d="M38.5485 35.1114C37.5307 35.3022 37.3081 35.6362 37.3081 36.9243C37.3081 38.2442 37.4035 38.4509 38.0396 38.4986L38.5008 38.5304L38.5485 37.2105L38.5962 35.9065H39.3754H40.1705V37.2741V38.6417L44.3211 38.5781C49.2508 38.5145 48.9168 38.6735 48.9168 36.4313V34.9524L44.0348 34.9683C41.3314 34.9842 38.8665 35.0478 38.5485 35.1114ZM47.8037 36.5744C47.8037 37.5127 47.8196 37.5127 44.4483 37.4649L41.3632 37.4172L41.3155 36.7334L41.2678 36.0655H44.5278H47.8037V36.5744Z" fill="white"/>
<path d="M16.1578 40.6613C15.0765 41.7426 15.5217 43.1738 17.0325 43.476C18.4478 43.7463 18.9726 41.2814 17.6686 40.5022C17.0166 40.0888 16.6826 40.1206 16.1578 40.6613Z" fill="white"/>
<path d="M31.8058 40.9317C31.3765 41.3769 31.2651 41.6314 31.2651 42.1403C31.2651 42.6809 31.3765 42.8877 31.9012 43.4124C32.3942 43.9054 32.6009 44.0167 32.8872 43.9372C33.9526 43.6351 34.4933 42.6809 34.1276 41.7904C33.889 41.2338 32.9667 40.3592 32.585 40.3592C32.4578 40.3592 32.0921 40.6136 31.8058 40.9317Z" fill="white"/>
<path d="M62.5611 15.3447C62.2908 15.4083 62.2749 15.9649 62.2749 24.2501V33.0918L67.5704 32.9964C70.7191 32.9487 73.0885 32.8374 73.4384 32.7419C74.154 32.5193 74.7742 31.8196 74.9968 30.945C75.0922 30.5951 75.1876 29.1798 75.2035 27.8122C75.2194 25.5541 75.1876 25.2678 74.8696 24.5522C74.4561 23.6299 74.4402 23.455 74.7901 22.9302C75.3308 22.0873 75.1876 17.6824 74.5674 16.6169C74.0586 15.7423 73.4384 15.5674 70.3692 15.3924C67.5704 15.2334 63.07 15.2016 62.5611 15.3447ZM70.3851 20.7993V21.9283L68.6836 21.8806L66.9661 21.8329V20.8788C66.9661 19.9564 66.982 19.9246 67.4432 19.8292C67.7135 19.7656 68.4768 19.7179 69.1606 19.702L70.3851 19.6861V20.7993ZM70.7032 27.4783V28.7504H68.7949H66.8866V27.4783V26.2061H68.7949H70.7032V27.4783Z" fill="white"/>
<path d="M81.7552 15.3766C80.0378 15.5197 79.0836 15.9491 78.8133 16.7283C78.4475 17.7779 78.3203 20.4336 78.368 25.586C78.4157 30.5316 78.4316 30.9451 78.7338 31.5176C79.2903 32.6148 79.6084 32.742 82.1846 32.917C83.425 32.9965 85.6036 33.0442 87.0189 33.0124C89.9608 32.9329 90.4379 32.7738 90.9786 31.6925C91.2807 31.0882 91.2966 30.6747 91.3443 25.0453C91.4239 17.11 91.2966 16.3467 89.8654 15.647C89.3247 15.3766 88.8477 15.3289 86.2079 15.2971C84.554 15.2812 82.5344 15.313 81.7552 15.3766ZM86.9235 21.2446C86.9235 22.0238 86.9712 23.9639 87.0348 25.5383L87.1302 28.4325H84.9675H82.7889V24.4887C82.7889 22.326 82.8366 20.4018 82.8843 20.1951C82.9797 19.8611 83.0433 19.8452 84.9516 19.8452H86.9235V21.2446Z" fill="white"/>
<path d="M94.7158 24.1389V33.0442H97.0217H99.3275V29.6093V26.1585L100.791 26.2698C101.586 26.3175 102.444 26.3652 102.699 26.3652H103.144V29.7047V33.0442H105.45H107.756V24.1389V15.2335H105.45H103.144V18.255V21.2764H101.236H99.3275V18.255V15.2335H97.0217H94.7158V24.1389Z" fill="white"/>
<path d="M111.572 15.3448C111.445 15.3925 111.286 15.5198 111.222 15.6152C111.159 15.7106 111.095 19.6703 111.095 24.4092V33.0442H113.369H115.659L115.755 30.1659C115.818 28.5756 115.898 27.2239 115.961 27.1762C116.104 27.0331 116.534 27.6374 118.267 30.3885L119.778 32.8057L122.434 32.8534C123.897 32.8693 125.089 32.8534 125.089 32.8057C125.089 32.7738 124.31 31.454 123.372 29.8955L121.654 27.0649L122.529 26.5878C123.928 25.8245 124.04 25.5224 124.103 22.3737C124.151 20.9107 124.087 19.1455 123.992 18.4299C123.658 15.9014 123.213 15.5675 119.873 15.3766C117.202 15.2335 111.922 15.2176 111.572 15.3448ZM119.364 21.34V22.6599L118.633 22.7712C118.219 22.819 117.393 22.8667 116.804 22.8667H115.707V21.4354V20.0042H117.536H119.364V21.34Z" fill="white"/>
<path d="M130.814 15.3766C127.935 15.5515 127.586 15.9649 127.299 19.5271C127.077 22.2305 127.315 31.0245 127.633 31.8832C127.745 32.2013 128.015 32.4875 128.397 32.6784C128.921 32.9328 129.446 32.9646 133.676 32.9646C139.131 32.9646 139.353 32.9169 139.878 31.7401C140.355 30.6588 140.562 27.4147 140.467 22.644C140.355 16.8237 140.133 15.9968 138.67 15.5515C137.922 15.3289 133.167 15.2175 130.814 15.3766ZM135.807 20.0996C135.855 20.2427 135.903 22.1669 135.903 24.3932V28.4324H133.835H131.768V24.1388V19.8451H133.74C135.394 19.8451 135.728 19.8928 135.807 20.0996Z" fill="white"/>
<path d="M143.95 16.2195C143.838 17.3803 143.6 21.7376 143.377 26.8423C143.298 28.8142 143.17 31.0087 143.123 31.7243L143.027 33.0442H145.19H147.353V32.5989C147.369 31.8356 147.973 24.5682 148.037 24.5046C148.084 24.4728 149.07 26.3652 150.231 28.7028C151.551 31.3267 152.457 32.9647 152.585 32.9647C152.728 32.9647 153.253 32.1378 153.841 30.9769C156.29 26.2221 157.117 24.759 157.212 24.9658C157.276 25.0771 157.451 26.8582 157.61 28.9096C157.769 30.961 157.944 32.6943 157.991 32.7579C158.039 32.8216 159.041 32.917 160.202 32.9806C161.967 33.076 162.301 33.0601 162.222 32.8693C162.158 32.6625 161.713 25.7768 161.347 18.9706C161.251 17.2213 161.14 15.6629 161.092 15.5039C161.013 15.2812 160.806 15.2335 159.693 15.2335C158.962 15.2335 158.055 15.2812 157.658 15.3289L156.958 15.4243L155.224 19.0342C154.286 21.0061 153.3 22.978 153.062 23.4073L152.616 24.1866L151.153 21.181C150.358 19.5272 149.388 17.5076 149.007 16.6965L148.323 15.2335H146.176H144.045L143.95 16.2195Z" fill="white"/>
<path d="M84.077 35.2068C84.2837 35.4295 84.6813 35.7475 84.9675 35.9224L85.4764 36.2405L86.1761 35.7793C86.5577 35.509 86.9553 35.1909 87.0666 35.0478C87.2574 34.8252 87.2256 34.7934 86.9394 34.7934C86.7486 34.7934 86.3192 34.9365 86.0012 35.0955C85.4128 35.3977 85.3969 35.3977 85.0152 35.0955C84.7926 34.9365 84.4109 34.7934 84.1565 34.7934H83.6953L84.077 35.2068Z" fill="white"/>
<path d="M136.65 35.191C136.316 35.4295 136.062 35.7317 136.062 35.9066C136.062 36.32 136.11 36.3041 136.857 35.8112C137.223 35.5726 137.493 35.2546 137.493 35.0956C137.493 34.698 137.366 34.7139 136.65 35.191Z" fill="white"/>
<path d="M160.186 35.191C159.852 35.4295 159.597 35.7317 159.597 35.9066C159.597 36.32 159.645 36.3041 160.392 35.8112C160.758 35.5726 161.028 35.2546 161.028 35.0956C161.028 34.698 160.901 34.7139 160.186 35.191Z" fill="white"/>
<path d="M64.5804 37.4173C63.5945 37.6717 62.7357 38.5145 62.7198 39.2461C62.7039 39.8981 63.2287 40.391 65.0575 41.4565C66.5205 42.2993 66.7431 42.7446 66.0275 43.4602C65.7095 43.7782 65.471 43.8577 64.7871 43.8577C64.326 43.8577 63.6899 43.7941 63.4036 43.6987C62.7675 43.5238 62.3064 43.7464 62.5926 44.1122C62.8153 44.3666 64.1033 44.8119 64.644 44.8119C65.9162 44.8119 67.0771 44.0645 67.3951 43.0308C67.5542 42.4901 67.5383 42.3311 67.2838 41.854C67.0612 41.4247 66.6795 41.1543 65.5028 40.5819C64.3419 40.0094 64.0079 39.7708 63.9125 39.4528C63.8012 38.9598 63.992 38.61 64.5168 38.3396C64.9939 38.0852 66.0116 38.0693 66.441 38.3078C66.7272 38.4509 66.8227 38.435 66.9976 38.1965C67.1725 37.958 67.1725 37.8784 66.9817 37.6717C66.6318 37.3378 65.4391 37.2105 64.5804 37.4173Z" fill="white"/>
<path d="M72.4522 37.322C72.1978 37.3856 72.0547 37.5446 72.0547 37.7354C72.0547 38.0217 72.1819 38.0535 73.1042 38.1012L74.1538 38.1489L74.2333 41.3135C74.2651 43.0627 74.3446 44.5257 74.3923 44.5893C74.4559 44.637 74.6309 44.637 74.8058 44.5893C75.092 44.4939 75.1238 44.2713 75.2352 41.393L75.3465 38.3079L76.0144 38.2284C76.3642 38.1807 76.8413 38.1171 77.0639 38.1012C77.3343 38.0694 77.4774 37.9421 77.5092 37.7195C77.5569 37.4333 77.4456 37.3697 76.9526 37.2901C76.1575 37.147 72.9611 37.1788 72.4522 37.322Z" fill="white"/>
<path d="M109.028 37.4491C107.74 37.8467 106.595 39.0235 106.309 40.2639C105.529 43.7942 109.982 46.1159 113.353 43.9373C114.276 43.3171 114.816 42.2676 114.816 41.0113C114.816 39.8345 114.594 39.2779 113.783 38.4828C112.638 37.3696 110.698 36.9403 109.028 37.4491ZM112.463 38.5305C114.721 39.8345 114.18 43.0309 111.604 43.7624C110.348 44.1122 109.871 44.0804 108.932 43.6193C107.851 43.0786 107.279 42.1881 107.279 40.9954C107.279 39.9299 107.644 39.2779 108.551 38.6736C109.728 37.8944 111.254 37.8308 112.463 38.5305Z" fill="white"/>
<path d="M145.778 39.9776C145.794 43.492 145.905 44.5575 146.255 44.6211C146.605 44.6847 146.716 44.2235 146.716 42.7446C146.716 42.0926 146.764 41.0748 146.812 40.4864L146.923 39.421L149.801 42.1244L152.68 44.8119L152.727 41.4247C152.775 37.8625 152.727 37.3378 152.378 37.3378C152.028 37.3378 151.964 37.7194 151.853 40.391L151.757 42.9354L149.197 40.4069C147.782 39.0234 146.446 37.7194 146.207 37.4968L145.762 37.131L145.778 39.9776Z" fill="white"/>
<path d="M83.2183 38.1487C83.1546 38.6258 83.1069 40.2319 83.1069 41.7268V44.462L84.9198 44.5733C86.8122 44.6846 87.4006 44.621 87.4006 44.2711C87.4006 44.0485 86.3033 43.8577 84.9675 43.8577H84.2042L84.2519 42.6173L84.2996 41.3928L85.0947 41.361C86.5578 41.2815 87.2416 41.1384 87.2416 40.9157C87.2416 40.7567 86.8281 40.6772 85.7308 40.5977L84.2201 40.4864V39.3096V38.1328H85.7308C86.9553 38.1328 87.2734 38.0851 87.3529 37.8943C87.4006 37.7512 87.4006 37.608 87.3529 37.5603C87.3052 37.4967 86.3669 37.4331 85.2856 37.3854L83.3137 37.29L83.2183 38.1487Z" fill="white"/>
<path d="M120.318 37.481C120.318 37.6718 123.419 43.8419 123.706 44.2395C123.912 44.5257 123.976 44.478 124.564 43.4444C125.296 42.204 127.633 37.6241 127.633 37.4492C127.633 37.3856 127.459 37.3379 127.252 37.3379C126.807 37.3379 126.473 37.8308 124.898 40.8205C124.278 41.9814 123.896 42.5697 123.785 42.4584C123.706 42.3789 123.292 41.552 122.863 40.6138C121.972 38.6578 121.066 37.3379 120.621 37.3379C120.461 37.3379 120.318 37.4015 120.318 37.481Z" fill="white"/>
<path d="M134.328 40.9159C133.327 42.8878 132.563 44.5416 132.611 44.6052C132.659 44.653 132.897 44.6371 133.12 44.5893C133.39 44.5257 133.629 44.2554 133.867 43.7783L134.217 43.0627H136.094H137.954L138.225 43.5716C138.606 44.3508 138.924 44.653 139.354 44.653C139.544 44.653 139.719 44.6052 139.719 44.5416C139.719 44.478 139.115 43.2376 138.399 41.7905C137.668 40.3434 136.905 38.7532 136.698 38.2443C136.491 37.7513 136.284 37.3379 136.221 37.3379C136.173 37.3379 135.314 38.944 134.328 40.9159ZM136.507 40.0731C136.682 40.3593 136.984 40.9795 137.159 41.4248L137.493 42.2676H136.141C135.299 42.2676 134.79 42.204 134.79 42.0927C134.79 41.8223 135.935 39.5642 136.062 39.5642C136.141 39.5642 136.332 39.8027 136.507 40.0731Z" fill="white"/>
<path d="M93.3796 38.2284C93.2524 39.1826 93.2524 43.1104 93.3955 43.9056C93.491 44.5576 93.8567 44.8438 94.0953 44.478C94.1748 44.3508 94.2384 43.5875 94.2384 42.7765V41.2976L96.5919 41.3453L98.9296 41.393L99.0886 42.9832C99.2317 44.4144 99.2794 44.5735 99.5657 44.5735C99.995 44.5735 100.09 43.7783 100.106 40.2321L100.122 37.4969H99.5657H99.0091V39.0076V40.5343L96.6714 40.4865L94.3179 40.4388L94.2702 39.3257C94.2225 37.8308 94.1271 37.4969 93.7772 37.4969C93.5546 37.4969 93.4592 37.6559 93.3796 38.2284Z" fill="white"/>
<path d="M159.279 41.0749V44.653H159.836H160.392V41.0749V37.4969H159.836H159.279V41.0749Z" fill="white"/>
<path d="M164.606 46.1636C165.052 46.4816 166.165 47.2608 167.103 47.881C168.041 48.5171 168.805 49.0737 168.82 49.1214C168.82 49.185 168.009 49.7416 167.039 50.3459C166.053 50.9661 164.924 51.6976 164.527 51.9679C163.875 52.4132 163.859 52.445 164.288 52.3496C165.942 51.9838 172.701 49.4395 172.685 49.185C172.669 48.8988 165.497 45.8773 164.352 45.6706C163.811 45.5752 163.811 45.5752 164.606 46.1636Z" fill="white"/>
</svg>
