<svg width="146" height="146" viewBox="0 0 146 146" fill="none" xmlns="http://www.w3.org/2000/svg">
<path d="M70.6338 8.48851C71.4036 6.23098 74.5964 6.23098 75.3662 8.4885L82.6711 29.911C83.4519 32.2009 86.265 33.0269 88.1599 31.5226L105.887 17.4502C107.755 15.9672 110.441 17.6934 109.868 20.0087L104.431 41.9798C103.85 44.3283 105.77 46.5441 108.178 46.3031L130.699 44.0486C133.072 43.811 134.398 46.7153 132.665 48.3533L116.213 63.8973C114.454 65.5588 114.871 68.4608 117.027 69.5596L137.192 79.8388C139.317 80.922 138.862 84.0824 136.518 84.5231L114.274 88.7048C111.896 89.1518 110.678 91.8187 111.898 93.9084L123.304 113.458C124.506 115.518 122.415 117.931 120.205 117.034L99.2313 108.526C96.9894 107.617 94.5229 109.202 94.4189 111.619L93.4454 134.232C93.3428 136.615 90.2792 137.514 88.9046 135.565L75.8603 117.068C74.4659 115.091 71.5341 115.091 70.1397 117.068L57.0954 135.565C55.7208 137.514 52.6572 136.615 52.5546 134.232L51.5811 111.619C51.4771 109.202 49.0106 107.617 46.7687 108.526L25.795 117.034C23.5848 117.931 21.4939 115.518 22.6959 113.458L34.1023 93.9084C35.3216 91.8187 34.1036 89.1518 31.7259 88.7048L9.48189 84.5231C7.13778 84.0824 6.68339 80.9221 8.80839 79.8388L28.9732 69.5596C31.1287 68.4608 31.5459 65.5588 29.7873 63.8973L13.3353 48.3533C11.6016 46.7153 12.9279 43.811 15.3012 44.0486L37.8223 46.3031C40.2297 46.5441 42.1496 44.3283 41.5685 41.9798L36.1319 20.0088C35.5589 17.6934 38.2449 15.9672 40.113 17.4502L57.8401 31.5226C59.735 33.0269 62.5481 32.2009 63.3289 29.911L70.6338 8.48851Z" fill="#FC4E19" stroke="white"/>
<path d="M92.4408 65.4401H87.9783C88.1502 64.8089 88.1523 64.1436 87.9844 63.5115C87.8164 62.8793 87.4845 62.3027 87.0221 61.8401C86.3139 61.145 85.3612 60.7555 84.3689 60.7555C83.3766 60.7555 82.424 61.145 81.7158 61.8401L78.5002 65.0632L75.2939 61.8401C74.9457 61.4914 74.5321 61.2148 74.0768 61.0261C73.6216 60.8374 73.1336 60.7402 72.6408 60.7402C72.148 60.7402 71.66 60.8374 71.2048 61.0261C70.7496 61.2148 70.336 61.4914 69.9877 61.8401C69.5253 62.3027 69.1933 62.8793 69.0254 63.5115C68.8575 64.1436 68.8596 64.8089 69.0314 65.4401H64.5596C63.8136 65.4401 63.0983 65.7364 62.5708 66.2638C62.0434 66.7913 61.7471 67.5066 61.7471 68.2526V70.1276C61.7481 70.6845 61.9156 71.2284 62.2279 71.6894C62.5403 72.1505 62.9834 72.5076 63.5002 72.7151V89.5713C63.5037 90.8134 63.9986 92.0037 64.877 92.882C65.7553 93.7604 66.9456 94.2553 68.1877 94.2588H88.8127C90.0559 94.2588 91.2482 93.7649 92.1273 92.8859C93.0063 92.0068 93.5002 90.8145 93.5002 89.5713V72.7338C94.0188 72.5224 94.4631 72.162 94.7768 71.698C95.0905 71.2341 95.2596 70.6876 95.2627 70.1276V68.2526C95.2627 67.8824 95.1896 67.5159 95.0477 67.1741C94.9058 66.8323 94.6978 66.5218 94.4356 66.2605C94.1735 65.9992 93.8623 65.7922 93.52 65.6515C93.1777 65.5107 92.8109 65.4388 92.4408 65.4401ZM71.3096 63.1694C71.6609 62.8202 72.1361 62.6242 72.6314 62.6242C73.1268 62.6242 73.602 62.8202 73.9533 63.1694L76.2221 65.4401H71.0283C70.8148 65.0846 70.7265 64.6678 70.7775 64.2563C70.8285 63.8447 71.0158 63.4621 71.3096 63.1694ZM76.6252 92.3838H68.1877C67.4418 92.3838 66.7264 92.0875 66.199 91.56C65.6715 91.0326 65.3752 90.3172 65.3752 89.5713V72.9401H76.6252V92.3838ZM76.6252 71.0651H64.5596C64.3109 71.0651 64.0725 70.9663 63.8967 70.7905C63.7208 70.6147 63.6221 70.3762 63.6221 70.1276V68.2526C63.6221 68.0039 63.7208 67.7655 63.8967 67.5896C64.0725 67.4138 64.3109 67.3151 64.5596 67.3151H76.6252V71.0651ZM83.0564 63.1694C83.3789 62.8488 83.807 62.6563 84.2608 62.6278C84.7147 62.5993 85.1635 62.7367 85.5235 63.0145C85.8836 63.2922 86.1305 63.6914 86.2182 64.1376C86.3059 64.5838 86.2284 65.0467 86.0002 65.4401H80.7877L83.0564 63.1694ZM91.6252 89.5713C91.6252 90.3172 91.3289 91.0326 90.8014 91.56C90.274 92.0875 89.5586 92.3838 88.8127 92.3838H80.3752V72.9401H91.6252V89.5713ZM93.3877 70.1276C93.3877 70.3762 93.2889 70.6147 93.1131 70.7905C92.9373 70.9663 92.6988 71.0651 92.4502 71.0651H80.3752V67.3151H92.4502C92.6988 67.3151 92.9373 67.4138 93.1131 67.5896C93.2889 67.7655 93.3877 68.0039 93.3877 68.2526V70.1276Z" fill="white"/>
<path d="M62 58.998H57V63.998C57 64.2633 56.8946 64.5176 56.7071 64.7052C56.5196 64.8927 56.2652 64.998 56 64.998C55.7348 64.998 55.4804 64.8927 55.2929 64.7052C55.1054 64.5176 55 64.2633 55 63.998V58.998H50C49.7348 58.998 49.4804 58.8927 49.2929 58.7052C49.1054 58.5176 49 58.2633 49 57.998C49 57.7328 49.1054 57.4785 49.2929 57.2909C49.4804 57.1034 49.7348 56.998 50 56.998H55V51.998C55 51.7328 55.1054 51.4785 55.2929 51.2909C55.4804 51.1034 55.7348 50.998 56 50.998C56.2652 50.998 56.5196 51.1034 56.7071 51.2909C56.8946 51.4785 57 51.7328 57 51.998V56.998H62C62.2652 56.998 62.5196 57.1034 62.7071 57.2909C62.8946 57.4785 63 57.7328 63 57.998C63 58.2633 62.8946 58.5176 62.7071 58.7052C62.5196 58.8927 62.2652 58.998 62 58.998Z" fill="white"/>
</svg>
